<svg width="43" height="43" viewBox="0 0 43 43" fill="none" xmlns="http://www.w3.org/2000/svg">
<g clip-path="url(#clip0_1033_249)">
<path d="M25.5166 0.367563C24.1987 0.120909 22.8711 0 21.5508 0C17.5294 0 13.5708 1.12445 10.108 3.29356C5.5062 6.17602 2.18121 10.6472 0.747234 15.8826C-0.747198 21.3477 0.0217816 27.2939 2.8583 32.2004C5.66822 37.1238 10.4175 40.785 15.8923 42.2479C17.8002 42.7654 19.7686 43.0169 21.7418 43.0024C25.4126 42.9637 29.0326 41.9723 32.2125 40.1369C37.1359 37.327 40.7971 32.5777 42.2601 27.1029C43.59 22.1771 43.1233 16.9248 40.947 12.3109C39.7452 9.77185 36.7031 8.68367 34.1664 9.88308C31.6273 11.0825 30.5392 14.1246 31.7386 16.6636C32.8848 19.0915 33.129 21.8555 32.4278 24.4453C31.6564 27.3254 29.7291 29.8282 27.1392 31.3057C24.559 32.7977 21.4275 33.2015 18.5498 32.4156C15.6698 31.6467 13.1694 29.717 11.6895 27.1271C10.1975 24.5469 9.79121 21.4154 10.5795 18.5377C12.1223 12.8985 17.822 9.31481 23.5724 10.3643L23.6594 10.3812C26.4017 10.8745 29.0423 9.06574 29.5646 6.32595C30.0918 3.56923 28.2757 0.897143 25.5166 0.369981V0.367563Z" fill="url(#paint0_linear_1033_249)"/>
<path opacity="0.73" d="M36.321 18.3974C38.5193 18.3974 40.3013 16.6154 40.3013 14.4171C40.3013 12.2188 38.5193 10.4368 36.321 10.4368C34.1227 10.4368 32.3407 12.2188 32.3407 14.4171C32.3407 16.6154 34.1227 18.3974 36.321 18.3974Z" fill="#8169F7"/>
</g>
<defs>
<linearGradient id="paint0_linear_1033_249" x1="32.227" y1="40.1248" x2="1.57425" y2="-12.9711" gradientUnits="userSpaceOnUse">
<stop stop-color="#7E4AFC"/>
<stop offset="0.16" stop-color="#7643F3"/>
<stop offset="0.41" stop-color="#6232DD"/>
<stop offset="0.62" stop-color="#4E21C6"/>
</linearGradient>
<clipPath id="clip0_1033_249">
<rect width="43" height="43" fill="white"/>
</clipPath>
</defs>
</svg>
