<svg width="38" height="40" viewBox="0 0 38 40" fill="none" xmlns="http://www.w3.org/2000/svg">
<g clip-path="url(#clip0_560_4744)">
<path d="M31.0992 38.3641L29.4234 38.3414L28.9408 38.2505C28.5608 38.1786 28.158 38.1066 27.7742 38.012C25.574 37.4667 23.3776 36.4596 20.8582 34.8503C17.7688 32.8738 14.725 30.3483 11.2784 26.8989C8.56848 24.2652 6.12357 21.3738 3.9786 18.2659C2.1584 15.5662 1.0678 13.3435 0.437 11.0111C0.3078 10.5416 0.2204 10.0759 0.1368 9.62528C0.0988 9.43217 0.0646 9.24664 0.0266 9.04975L0 8.8112V7.46324L0.0912 7.24363C0.76 5.63062 1.9 4.49091 3.0172 3.4648C3.8304 2.70751 4.6892 2.01839 5.4948 1.37848C5.97694 0.98492 6.54597 0.711044 7.15507 0.57939C7.76417 0.447736 8.39594 0.462067 8.9984 0.621203C9.78269 0.806824 10.4639 1.28878 10.8984 1.96538L11.9396 3.52916C13.0264 5.18004 14.1474 6.88392 15.2874 8.53101C15.7214 9.12811 15.9812 9.83313 16.0382 10.5682C16.0952 11.3032 15.9471 12.0396 15.6104 12.6961C15.409 13.1391 15.1772 13.548 14.953 13.9456L14.668 14.4567C14.4552 14.8354 14.2462 15.214 14.0258 15.5927L14.7402 16.4446C15.3824 17.2019 16.0512 18.016 16.7352 18.7505C18.6121 20.8063 20.6544 22.7058 22.8418 24.4301C23.6474 23.9644 24.491 23.4949 25.4144 22.9951C26.3384 22.4353 27.4407 22.2446 28.5 22.4612C28.8759 22.5468 29.2335 22.6981 29.5564 22.908C31.9099 24.4503 34.257 25.999 36.5978 27.5539C37.8214 28.368 38.3116 30.0264 37.7986 31.594C37.6829 31.9686 37.5085 32.3226 37.2818 32.6429C36.0627 34.3641 34.6084 35.9074 32.9612 37.2282C32.6021 37.4972 32.2207 37.7353 31.8212 37.94C31.6768 38.0196 31.5362 38.0953 31.3956 38.1748L31.0992 38.3641ZM29.773 35.937H30.4494L30.6546 35.8272C30.9359 35.6849 31.2053 35.5203 31.4602 35.335C32.9293 34.1439 34.2248 32.7548 35.3096 31.2078C35.3835 31.0904 35.4399 30.9628 35.4768 30.8292C35.567 30.6193 35.5927 30.3876 35.5508 30.1631C35.5089 29.9387 35.4011 29.7317 35.2412 29.5683C32.9029 28.0159 30.5609 26.471 28.215 24.9337C28.1344 24.8827 28.0458 24.8455 27.9528 24.8239C27.4706 24.7416 26.975 24.8444 26.5658 25.1117C25.5436 25.6607 24.6278 26.1757 23.7652 26.683C23.4472 26.8892 23.0714 26.9887 22.6926 26.9669C22.3139 26.9451 21.952 26.8032 21.66 26.5619C19.2507 24.7016 17.0079 22.6365 14.9568 20.39C14.2234 19.6063 13.5356 18.7808 12.8706 17.9819C12.5172 17.5692 12.16 17.1602 11.8256 16.7513C11.5809 16.4829 11.4334 16.1406 11.4066 15.779C11.3797 15.4174 11.475 15.0572 11.6774 14.7559C11.9776 14.2636 12.255 13.7638 12.5324 13.2678L12.8288 12.7415C13.0378 12.3629 13.2316 12.0296 13.3874 11.6851C13.5483 11.4117 13.6237 11.0967 13.6041 10.7804C13.5844 10.4641 13.4706 10.1608 13.2772 9.90926C12.1372 8.23946 10.9972 6.52043 9.899 4.86198L8.8844 3.30955C8.83423 3.22754 8.76742 3.15688 8.68824 3.1021C8.60905 3.04733 8.51925 3.00965 8.4246 2.99149C8.1852 2.91933 7.93162 2.90714 7.68636 2.95602C7.4411 3.00489 7.21173 3.11332 7.0186 3.27169C6.2586 3.88887 5.4264 4.55149 4.6702 5.24819C3.7734 6.06984 2.9298 6.89907 2.4358 7.95169V8.68625C2.47 8.84907 2.5004 9.01188 2.5308 9.1747C2.6106 9.59878 2.6866 9.99635 2.7892 10.375C3.344 12.4234 4.3358 14.4378 6.0002 16.9065C8.05856 19.8863 10.4042 22.6585 13.0036 25.1836C16.34 28.5195 19.2394 30.9238 22.1768 32.8057C24.4568 34.271 26.4328 35.176 28.3632 35.6568C28.6976 35.7401 29.0396 35.8007 29.3816 35.8613L29.773 35.937Z" fill="#FCFDFC"/>
</g>
<defs>
<clipPath id="clip0_560_4744">
<rect width="38" height="39" fill="white" transform="translate(0 0.5)"/>
</clipPath>
</defs>
</svg>
