<svg width="225" height="225" viewBox="0 0 225 225" fill="none" xmlns="http://www.w3.org/2000/svg">
<path d="M75.2571 181.17C75.2571 182.1 74.2137 182.845 72.8982 182.845C71.4012 182.984 70.3579 182.24 70.3579 181.17C70.3579 180.239 71.4012 179.495 72.7167 179.495C74.0776 179.355 75.2571 180.1 75.2571 181.17ZM61.1492 179.076C60.8317 180.007 61.7389 181.077 63.0998 181.356C64.2792 181.821 65.6401 181.356 65.9123 180.425C66.1845 179.495 65.3226 178.425 63.9617 178.006C62.7823 177.68 61.4667 178.146 61.1492 179.076ZM81.1996 178.285C79.8841 178.611 78.9768 179.495 79.1129 180.565C79.249 181.495 80.4284 182.1 81.7893 181.775C83.1048 181.449 84.0121 180.565 83.876 179.634C83.7399 178.75 82.5151 178.146 81.1996 178.285ZM111.048 0C48.13 0 0 48.9912 0 113.522C0 165.118 31.6633 209.271 76.8901 224.81C82.6966 225.881 84.7379 222.205 84.7379 219.181C84.7379 216.296 84.6018 200.385 84.6018 190.614C84.6018 190.614 52.8478 197.593 46.1794 176.75C46.1794 176.75 41.0081 163.211 33.5685 159.721C33.5685 159.721 23.1804 152.417 34.2944 152.557C34.2944 152.557 45.5897 153.487 51.8044 164.56C61.7389 182.519 78.3871 177.355 84.874 174.284C85.9173 166.84 88.8659 161.676 92.1321 158.605C66.7742 155.72 41.1895 151.952 41.1895 107.194C41.1895 94.3999 44.6371 87.9794 51.8952 79.791C50.7157 76.7668 46.8599 64.298 53.0746 48.2003C62.5554 45.1761 84.375 60.7621 84.375 60.7621C93.4476 58.1567 103.201 56.8074 112.863 56.8074C122.525 56.8074 132.278 58.1567 141.351 60.7621C141.351 60.7621 163.17 45.1296 172.651 48.2003C178.866 64.3445 175.01 76.7668 173.831 79.791C181.089 88.0259 185.534 94.4464 185.534 107.194C185.534 152.091 158.816 155.674 133.458 158.605C137.631 162.28 141.169 169.259 141.169 180.193C141.169 195.872 141.033 215.273 141.033 219.088C141.033 222.112 143.12 225.787 148.881 224.717C194.244 209.271 225 165.118 225 113.522C225 48.9912 173.967 0 111.048 0ZM44.0927 160.466C43.503 160.931 43.6391 162.001 44.4103 162.885C45.1361 163.63 46.1794 163.955 46.7692 163.35C47.3589 162.885 47.2228 161.815 46.4516 160.931C45.7258 160.187 44.6825 159.861 44.0927 160.466ZM39.1936 156.697C38.876 157.302 39.3296 158.047 40.2369 158.512C40.9627 158.977 41.87 158.838 42.1875 158.186C42.505 157.581 42.0514 156.837 41.1442 156.372C40.2369 156.093 39.5111 156.232 39.1936 156.697ZM53.8911 173.26C53.1653 173.865 53.4375 175.261 54.4808 176.145C55.5242 177.215 56.8397 177.355 57.4294 176.61C58.0192 176.005 57.747 174.61 56.8397 173.726C55.8417 172.656 54.4808 172.516 53.8911 173.26ZM48.7198 166.421C47.994 166.886 47.994 168.096 48.7198 169.166C49.4456 170.236 50.6704 170.701 51.2601 170.236C51.9859 169.631 51.9859 168.422 51.2601 167.352C50.625 166.282 49.4456 165.816 48.7198 166.421Z" fill="black"/>
</svg>
