<svg width="57" height="57" viewBox="0 0 57 57" fill="none" xmlns="http://www.w3.org/2000/svg">
<path d="M48.5377 26.1249H8.46191C7.51708 26.1249 6.61094 25.7496 5.94285 25.0815C5.27475 24.4134 4.89941 23.5073 4.89941 22.5624V13.2168C4.89941 12.272 5.27475 11.3658 5.94285 10.6977C6.61094 10.0296 7.51708 9.6543 8.46191 9.6543H48.5377C49.4825 9.6543 50.3886 10.0296 51.0567 10.6977C51.7248 11.3658 52.1002 12.272 52.1002 13.2168V22.5505C52.1017 23.0194 52.0107 23.4839 51.8324 23.9175C51.6541 24.3511 51.3919 24.7452 51.0609 25.0773C50.73 25.4094 50.3367 25.6728 49.9037 25.8526C49.4707 26.0324 49.0065 26.1249 48.5377 26.1249ZM8.46191 12.0293C8.14697 12.0293 7.84492 12.1544 7.62223 12.3771C7.39953 12.5998 7.27441 12.9019 7.27441 13.2168V22.5505C7.27441 22.8655 7.39953 23.1675 7.62223 23.3902C7.84492 23.6129 8.14697 23.738 8.46191 23.738H48.5377C48.8526 23.738 49.1547 23.6129 49.3774 23.3902C49.6001 23.1675 49.7252 22.8655 49.7252 22.5505V13.2168C49.7252 12.9019 49.6001 12.5998 49.3774 12.3771C49.1547 12.1544 48.8526 12.0293 48.5377 12.0293H8.46191ZM48.5377 47.3455H8.46191C7.51708 47.3455 6.61094 46.9702 5.94285 46.3021C5.27475 45.634 4.89941 44.7279 4.89941 43.783V34.4493C4.89941 33.5045 5.27475 32.5983 5.94285 31.9302C6.61094 31.2621 7.51708 30.8868 8.46191 30.8868H48.5377C49.4825 30.8868 50.3886 31.2621 51.0567 31.9302C51.7248 32.5983 52.1002 33.5045 52.1002 34.4493V43.783C52.1002 44.7279 51.7248 45.634 51.0567 46.3021C50.3886 46.9702 49.4825 47.3455 48.5377 47.3455ZM8.46191 33.2618C8.14697 33.2618 7.84492 33.3869 7.62223 33.6096C7.39953 33.8323 7.27441 34.1344 7.27441 34.4493V43.783C7.27441 44.098 7.39953 44.4 7.62223 44.6227C7.84492 44.8454 8.14697 44.9705 8.46191 44.9705H48.5377C48.8526 44.9705 49.1547 44.8454 49.3774 44.6227C49.6001 44.4 49.7252 44.098 49.7252 43.783V34.4493C49.7252 34.1344 49.6001 33.8323 49.3774 33.6096C49.1547 33.3869 48.8526 33.2618 48.5377 33.2618H8.46191Z" fill="white"/>
<path d="M13.2119 19.0713C13.8678 19.0713 14.3994 18.5396 14.3994 17.8838C14.3994 17.228 13.8678 16.6963 13.2119 16.6963C12.5561 16.6963 12.0244 17.228 12.0244 17.8838C12.0244 18.5396 12.5561 19.0713 13.2119 19.0713Z" fill="#1FAD90"/>
<path d="M17.9619 19.0713C18.6178 19.0713 19.1494 18.5396 19.1494 17.8838C19.1494 17.228 18.6178 16.6963 17.9619 16.6963C17.3061 16.6963 16.7744 17.228 16.7744 17.8838C16.7744 18.5396 17.3061 19.0713 17.9619 19.0713Z" fill="#1FAD90"/>
<path d="M31.9482 19.0713C31.6333 19.0713 31.3313 18.9462 31.1086 18.7235C30.8859 18.5008 30.7607 18.1987 30.7607 17.8838C30.7607 17.5688 30.8859 17.2668 31.1086 17.0441C31.3313 16.8214 31.6333 16.6963 31.9482 16.6963H43.8232C44.1382 16.6963 44.4402 16.8214 44.6629 17.0441C44.8856 17.2668 45.0107 17.5688 45.0107 17.8838C45.0107 18.1987 44.8856 18.5008 44.6629 18.7235C44.4402 18.9462 44.1382 19.0713 43.8232 19.0713H31.9482Z" fill="black"/>
<path d="M13.2119 40.3037C13.8678 40.3037 14.3994 39.772 14.3994 39.1162C14.3994 38.4604 13.8678 37.9287 13.2119 37.9287C12.5561 37.9287 12.0244 38.4604 12.0244 39.1162C12.0244 39.772 12.5561 40.3037 13.2119 40.3037Z" fill="#1FAD90"/>
<path d="M17.9619 40.3037C18.6178 40.3037 19.1494 39.772 19.1494 39.1162C19.1494 38.4604 18.6178 37.9287 17.9619 37.9287C17.3061 37.9287 16.7744 38.4604 16.7744 39.1162C16.7744 39.772 17.3061 40.3037 17.9619 40.3037Z" fill="#1FAD90"/>
<path d="M31.9482 40.3037C31.6333 40.3037 31.3313 40.1786 31.1086 39.9559C30.8859 39.7332 30.7607 39.4312 30.7607 39.1162C30.7607 38.8013 30.8859 38.4992 31.1086 38.2765C31.3313 38.0538 31.6333 37.9287 31.9482 37.9287H43.8232C44.1382 37.9287 44.4402 38.0538 44.6629 38.2765C44.8856 38.4992 45.0107 38.8013 45.0107 39.1162C45.0107 39.4312 44.8856 39.7332 44.6629 39.9559C44.4402 40.1786 44.1382 40.3037 43.8232 40.3037H31.9482Z" fill="black"/>
</svg>
