<svg width="28" height="29" viewBox="0 0 28 29" fill="none" xmlns="http://www.w3.org/2000/svg">
<path fill-rule="evenodd" clip-rule="evenodd" d="M14.0083 0.00343987C15.9458 0.00343987 17.8834 -0.00584919 19.8208 0.00610198C21.6436 0.0173735 23.3555 0.447899 24.8388 1.59558C26.7758 3.09438 27.7671 5.14168 27.9515 7.61209C28.0165 8.48152 27.9963 9.35852 27.9974 10.2321C28.0018 13.6197 27.9994 17.0074 27.999 20.3951C27.9989 21.7787 27.8131 23.1296 27.2478 24.3948C26.1011 26.9613 24.1008 28.3643 21.4616 28.8506C20.9114 28.9519 20.3437 28.9898 19.7839 28.9915C15.9193 29.0033 12.0547 29.0006 8.19005 28.9964C6.18043 28.9943 4.34244 28.4447 2.77617 27.0943C1.18484 25.7225 0.345119 23.9283 0.0839042 21.8247C0.0388418 21.4619 0.011252 21.0939 0.0109239 20.7283C0.00715044 16.5207 -0.0173769 12.3128 0.0224356 8.10565C0.0442012 5.80701 0.783192 3.76897 2.43535 2.16306C3.80579 0.831101 5.4716 0.135129 7.32274 0.067019C9.54863 -0.0148834 11.7795 0.0476196 14.0082 0.0476196C14.0083 0.0328647 14.0083 0.0181381 14.0083 0.00343987ZM13.9865 26.32C15.8507 26.32 17.715 26.3278 19.5792 26.3147C20.0667 26.3113 20.5613 26.2862 21.0397 26.1966C22.867 25.8544 24.2563 24.9052 24.9843 23.0623C25.3542 22.1262 25.475 21.1217 25.4908 20.1489C25.5519 16.3746 25.5175 12.5986 25.5132 8.82326C25.5127 8.41426 25.5084 8.0007 25.4525 7.59713C25.202 5.78497 24.4435 4.29966 22.8332 3.39641C21.9345 2.89228 20.9588 2.70194 19.9446 2.7016C16.0391 2.70041 12.1336 2.69922 8.22809 2.70407C7.87514 2.70452 7.51907 2.72474 7.16983 2.77557C5.18069 3.06484 3.71553 4.08018 2.98228 6.07772C2.68637 6.8838 2.59181 7.72846 2.59165 8.58602C2.59108 12.534 2.58741 16.4818 2.59665 20.4298C2.59777 20.9128 2.63256 21.4027 2.71604 21.8774C3.08635 23.9831 4.22005 25.4305 6.23908 26.0124C6.9119 26.2063 7.63112 26.2919 8.33148 26.3065C10.2158 26.3457 12.1014 26.3199 13.9865 26.32Z" fill="#F9F9F9"/>
<path fill-rule="evenodd" clip-rule="evenodd" d="M21 14.5034C20.9983 18.643 17.8461 22.0101 13.9816 22C10.1156 21.99 7.00225 18.6464 7 14.5023C6.99775 10.3628 10.1453 6.99549 14.0127 7C17.8467 7.00443 21.0017 10.3925 21 14.5034ZM14.0027 19.2974C16.4676 19.2994 18.4977 17.1257 18.4935 14.489C18.4892 11.8706 16.4642 9.6968 14.0194 9.68615C11.558 9.67544 9.52882 11.8425 9.5236 14.4874C9.51841 17.136 11.529 19.2953 14.0027 19.2974Z" fill="#F9F9F9"/>
<path fill-rule="evenodd" clip-rule="evenodd" d="M21.9855 7.99994C21.4334 7.99252 20.9982 7.32841 21 6.49607C21.0017 5.65427 21.4478 4.99426 22.0111 5.00004C22.5569 5.00572 23.0017 5.6829 23 6.50572C22.9983 7.3402 22.5453 8.00745 21.9855 7.99994Z" fill="#F9F9F9"/>
</svg>
