<svg width="22" height="23" viewBox="0 0 22 23" fill="none" xmlns="http://www.w3.org/2000/svg">
<path d="M15.9484 13.4852C15.6807 13.3507 14.3475 12.7114 14.0995 12.6249C13.8515 12.5336 13.6698 12.4904 13.4906 12.7595C13.3089 13.0263 12.7933 13.6198 12.6312 13.8C12.4741 13.9779 12.3145 13.9995 12.0469 13.8673C10.4558 13.0887 9.4123 12.4783 8.36387 10.7169C8.08642 10.2483 8.64133 10.2819 9.1594 9.27023C9.24779 9.0924 9.2036 8.94101 9.13485 8.80643C9.0661 8.67186 8.52592 7.36939 8.30003 6.83831C8.08151 6.32164 7.85562 6.39374 7.69111 6.38412C7.53397 6.37451 7.35473 6.37451 7.17304 6.37451C6.99135 6.37451 6.69916 6.4418 6.45117 6.70373C6.20319 6.97048 5.50342 7.6121 5.50342 8.91457C5.50342 10.217 6.47327 11.4787 6.60586 11.6565C6.74336 11.8343 8.51365 14.5066 11.2317 15.6576C12.9504 16.3834 13.6232 16.4458 14.4825 16.3209C15.0055 16.244 16.0834 15.6817 16.3069 15.0593C16.5303 14.4393 16.5303 13.9082 16.464 13.7976C16.3977 13.6799 16.216 13.6126 15.9484 13.4852Z" fill="white"/>
<path d="M21.1454 7.201C20.5905 5.91054 19.795 4.75226 18.7809 3.75738C17.7669 2.7649 16.5834 1.9839 15.2624 1.44321C13.912 0.888095 12.4781 0.606934 11 0.606934H10.9509C9.46297 0.614143 8.02169 0.902513 6.66635 1.46964C5.35766 2.01754 4.18402 2.79614 3.17979 3.78862C2.17556 4.78109 1.3874 5.93458 0.842316 7.22023C0.277591 8.55154 -0.00722668 9.96695 0.000139297 11.4232C0.00750528 13.091 0.415089 14.7467 1.1787 16.227V19.8797C1.1787 20.4901 1.68449 20.9851 2.30815 20.9851H6.0427C7.55518 21.7325 9.2469 22.1314 10.9509 22.1386H11.0025C12.4732 22.1386 13.8997 21.8598 15.2428 21.3143C16.5564 20.7784 17.7374 20.0094 18.749 19.0266C19.7631 18.0437 20.561 16.8951 21.1184 15.6142C21.6979 14.2877 21.9925 12.8771 21.9999 11.4208C22.0072 9.95734 21.7175 8.53712 21.1454 7.201ZM17.4354 17.7265C15.7142 19.3943 13.4308 20.3122 11 20.3122H10.9583C9.4777 20.305 8.00696 19.9446 6.70809 19.2669L6.50184 19.1588H3.04474V15.7752L2.93425 15.5734C2.24185 14.3021 1.87355 12.8627 1.86619 11.4136C1.85637 9.01773 2.79185 6.76845 4.50812 5.07427C6.22194 3.38009 8.51276 2.44289 10.9607 2.43328H11.0025C12.2301 2.43328 13.421 2.66638 14.543 3.12777C15.6381 3.57715 16.6202 4.22358 17.4649 5.05024C18.3071 5.8745 18.97 6.83814 19.4291 7.90991C19.9055 9.02014 20.1436 10.1976 20.1387 11.4136C20.124 13.8071 19.164 16.0492 17.4354 17.7265Z" fill="white"/>
</svg>
