<svg width="45" height="35" viewBox="0 0 45 35" fill="none" xmlns="http://www.w3.org/2000/svg">
<path d="M33.3156 17.4525L19.0531 10.1633C18.6281 9.94557 18.1094 9.94557 17.6844 10.1633C17.2593 10.381 17 10.781 17 11.2118V25.7883C17 26.219 17.2593 26.6237 17.6844 26.8367C17.8956 26.9456 18.1282 27 18.3688 27C18.6094 27 18.8419 26.9456 19.0531 26.8367L33.3156 19.5475C33.7407 19.3298 34 18.9299 34 18.4991C34 18.0684 33.7407 17.6637 33.3156 17.4506V17.4525ZM19.7375 23.6935V13.3083L29.8937 18.5008L19.7375 23.6935Z" fill="#F9F9F9"/>
<path d="M36.7519 0.965357C27.3453 -0.321786 17.6711 -0.321786 8.25709 0.965357C4.37479 1.49689 1.35187 4.41197 0.741205 8.22544C0.246256 11.2835 0 14.4012 0 17.4998C0 20.5984 0.253513 23.7469 0.748436 26.8241C1.3472 30.5473 4.43765 33.5051 8.25258 34.0299C12.9558 34.6759 17.7531 35 22.5 35C27.2467 35 32.0438 34.6758 36.7474 34.0299C40.6225 33.4984 43.6378 30.6071 44.2516 26.8241C44.7465 23.7493 45 20.6124 45 17.4998C45 14.3868 44.7465 11.2526 44.2516 8.17541C43.6528 4.45225 40.5624 1.49439 36.7474 0.969628L36.7519 0.965357ZM41.8125 26.4336C41.3731 29.1437 39.2049 31.2246 36.4115 31.6084C27.2274 32.8645 17.7819 32.8645 8.59778 31.6084C5.8478 31.2294 3.62895 29.1056 3.19679 26.4336C2.72115 23.4875 2.47969 20.4771 2.47969 17.4955C2.47969 14.5113 2.72113 11.5342 3.18949 8.60498C3.62891 5.86625 5.80429 3.76633 8.60495 3.38258C13.1971 2.75335 17.8762 2.43629 22.5118 2.43629C27.1474 2.43629 31.8263 2.7533 36.4187 3.38258C39.1686 3.76156 41.3875 5.88535 41.8197 8.55732C42.2953 11.5034 42.5368 14.5139 42.5368 17.4954C42.5368 20.4797 42.2953 23.4877 41.8197 26.4336L41.8125 26.4336Z" fill="#F9F9F9"/>
</svg>
