<svg width="55" height="55" viewBox="0 0 55 55" fill="none" xmlns="http://www.w3.org/2000/svg">
<path d="M42.7268 0.893066H12.2732C5.53806 0.893066 0.078125 6.353 0.078125 13.0882V41.9129C0.078125 48.6481 5.53806 54.108 12.2732 54.108H42.7268C49.4619 54.108 54.9219 48.6481 54.9219 41.9129V13.0882C54.9219 6.353 49.4619 0.893066 42.7268 0.893066Z" fill="#271302"/>
<path d="M42.7268 3.43213H12.2732C6.94035 3.43213 2.61719 7.75529 2.61719 13.0882V41.9129C2.61719 47.2458 6.94035 51.5689 12.2732 51.5689H42.7268C48.0597 51.5689 52.3828 47.2458 52.3828 41.9129V13.0882C52.3828 7.75529 48.0597 3.43213 42.7268 3.43213Z" fill="#271302"/>
<path d="M19.2924 31.9663L17.7448 36.7397C17.7233 36.8159 17.6766 36.8826 17.6122 36.9287C17.5479 36.9748 17.4697 36.9977 17.3906 36.9936H13.6493C13.4234 36.9936 13.3586 36.8667 13.3954 36.6711L19.8446 18.0624C19.9716 17.7082 20.0985 17.3209 20.1671 16.0958C20.1642 16.0404 20.1828 15.986 20.219 15.944C20.2551 15.9019 20.3061 15.8753 20.3613 15.8699H25.5207C25.6819 15.8699 25.7467 15.9016 25.7746 16.0628L33.096 36.7029C33.1608 36.8641 33.1277 36.9936 32.9348 36.9936H28.7453C28.6687 37.0046 28.5907 36.9879 28.5253 36.9465C28.4599 36.905 28.4114 36.8416 28.3886 36.7676L26.7382 31.9625L19.2924 31.9663ZM25.5499 27.9355C24.905 25.8065 23.6139 21.904 23.002 19.615H22.969C22.4535 21.7732 21.2919 25.3279 20.454 27.9355H25.5499Z" fill="#FF7C01"/>
<path d="M35.0312 16.7444C35.0312 15.2934 36.0951 14.2612 37.5462 14.2612C39.0938 14.2612 40.0294 15.2934 40.0294 16.7444C40.0294 18.2603 39.0303 19.2594 37.5145 19.2594C35.9986 19.2594 35.0312 18.2603 35.0312 16.7444ZM35.256 21.2271C35.256 21.0659 35.3207 20.9732 35.5099 20.9732H39.4759C39.6701 20.9732 39.7298 21.0367 39.7298 21.2271V36.7065C39.7298 36.9008 39.698 36.9973 39.4403 36.9973H35.5784C35.3537 36.9973 35.256 36.9008 35.256 36.7065V21.2271Z" fill="#FF7C01"/>
</svg>
