<svg width="30" height="30" viewBox="0 0 30 30" fill="none" xmlns="http://www.w3.org/2000/svg">
<path d="M2 12.8333H10.6667C11.8633 12.8333 12.8333 11.8633 12.8333 10.6667V4.16667C12.8333 2.97006 11.8633 2 10.6667 2H4.16667C2.97006 2 2 2.97006 2 4.16667V12.8333ZM2 12.8333V20.4167C2 24.6048 5.39517 28 9.58333 28M17.1667 12.8333H25.8333C27.03 12.8333 28 11.8633 28 10.6667V4.16667C28 2.97006 27.03 2 25.8333 2H19.3333C18.1367 2 17.1667 2.97006 17.1667 4.16667V12.8333ZM17.1667 12.8333V20.4167C17.1667 24.6048 20.5618 28 24.75 28" stroke="#F89623" stroke-width="4"/>
</svg>
