<svg width="30" height="30" viewBox="0 0 30 30" fill="none" xmlns="http://www.w3.org/2000/svg">
<path d="M28 17.1667L19.3333 17.1667C18.1367 17.1667 17.1667 18.1367 17.1667 19.3333L17.1667 25.8333C17.1667 27.0299 18.1367 28 19.3333 28L25.8333 28C27.0299 28 28 27.0299 28 25.8333L28 17.1667ZM28 17.1667L28 9.58333C28 5.39517 24.6048 2 20.4167 2M12.8333 17.1667L4.16667 17.1667C2.97002 17.1667 2 18.1367 2 19.3333L2 25.8333C2 27.0299 2.97002 28 4.16667 28L10.6667 28C11.8633 28 12.8333 27.0299 12.8333 25.8333L12.8333 17.1667ZM12.8333 17.1667L12.8333 9.58333C12.8333 5.39516 9.43817 2 5.25 2" stroke="#F89623" stroke-width="4"/>
</svg>
