<svg width="163" height="36" viewBox="0 0 163 36" fill="none" xmlns="http://www.w3.org/2000/svg">
<path d="M83.787 11.2022C83.3536 11.2005 82.9384 11.0304 82.6315 10.7288L79.0475 7.29147C78.7464 6.98673 78.5779 6.57808 78.5781 6.15274C78.5783 5.7274 78.7472 5.31894 79.0486 5.01447C79.35 4.71 79.7602 4.53364 80.1917 4.52298C80.6232 4.51227 81.0418 4.66815 81.3584 4.95727L84.9424 8.40409C85.1778 8.63058 85.3394 8.92101 85.4065 9.23839C85.4736 9.55578 85.4432 9.88567 85.3192 10.186C85.1952 10.4862 84.9832 10.7433 84.7103 10.9243C84.4374 11.1053 84.116 11.2021 83.787 11.2022Z" fill="white"/>
<path d="M78.4991 31.6253C78.175 31.6156 77.8609 31.5123 77.596 31.3281C77.3309 31.144 77.1267 30.8873 77.0084 30.5897C76.8902 30.2921 76.8633 29.967 76.931 29.6544C76.9987 29.342 77.1581 29.0559 77.3893 28.8319L90.2698 16.387C90.4248 16.2372 90.6083 16.1189 90.8097 16.0389C91.0112 15.959 91.2266 15.9189 91.4438 15.921C91.6609 15.923 91.8755 15.9673 92.0753 16.0511C92.2751 16.1349 92.4562 16.2567 92.6083 16.4095C92.7603 16.5623 92.8804 16.7431 92.9615 16.9416C93.0427 17.1402 93.0833 17.3525 93.0812 17.5664C93.0791 17.7805 93.0342 17.992 92.9491 18.1888C92.8641 18.3858 92.7405 18.5642 92.5855 18.7141L79.7074 31.1614C79.5482 31.3151 79.3591 31.4355 79.1514 31.5152C78.9438 31.595 78.7219 31.6324 78.4991 31.6253Z" fill="white"/>
<path d="M81.9564 28.3137C82.3899 28.3139 82.8083 28.1562 83.1311 27.871L79.72 31.1497C79.5252 31.3402 79.286 31.4808 79.0234 31.5593L78.9633 31.5758L78.9152 31.5877H78.86H78.7999L78.7183 31.5995C78.663 31.5995 78.6054 31.5995 78.5501 31.5995C78.4949 31.5995 78.442 31.5995 78.3892 31.5995H78.3243H78.2979H78.2258L78.1345 31.5806L78.0577 31.5569C78.0042 31.5419 77.952 31.5229 77.9015 31.5001L77.8318 31.4717C77.7072 31.4127 77.5909 31.3379 77.486 31.2491C77.4678 31.2375 77.4516 31.2231 77.4379 31.2066C77.4171 31.191 77.3977 31.1736 77.3803 31.1544C77.3417 31.1181 77.3056 31.0794 77.2721 31.0384C77.2051 30.9563 77.1456 30.8683 77.0944 30.7757C77.0239 30.6456 76.9706 30.5072 76.9359 30.3638C76.9359 30.3425 76.9359 30.3212 76.9239 30.3022C76.9225 30.2833 76.9225 30.2643 76.9239 30.2454C76.9239 30.217 76.9239 30.191 76.9239 30.1626C76.9239 30.1342 76.9239 30.0537 76.9239 29.9968V4.57673C76.9239 4.51994 76.9239 4.46548 76.9239 4.41103C76.9239 4.35658 76.9239 4.35658 76.9239 4.32818C76.923 4.30605 76.9238 4.2839 76.9263 4.26189C76.9263 4.24295 76.9263 4.22402 76.9383 4.20271C76.972 4.05858 77.0245 3.91935 77.0944 3.78843C77.1469 3.70478 77.2063 3.6256 77.2721 3.5517C77.305 3.51025 77.3411 3.47146 77.3803 3.4357C77.3977 3.41656 77.4171 3.39913 77.4379 3.38362C77.4515 3.36631 77.4677 3.35114 77.486 3.33864C77.5917 3.25157 77.7079 3.17763 77.8318 3.11848L77.9015 3.09008C77.952 3.06649 78.0042 3.0467 78.0577 3.0309L78.1345 3.00959L78.2258 2.98828H78.2979H78.3243H78.3892C78.442 2.98828 78.4949 2.98828 78.5501 2.98828C78.6054 2.98828 78.663 2.98828 78.7183 2.98828H78.7999H78.86H78.9152L78.9633 3.00012L79.0234 3.01669C79.2863 3.09442 79.5257 3.23512 79.72 3.42623L83.1311 6.70496C82.8792 6.4818 82.5671 6.33537 82.2326 6.28326C81.898 6.23115 81.5553 6.27561 81.2459 6.41133C80.9364 6.54701 80.6735 6.76814 80.4888 7.04795C80.3041 7.32771 80.2056 7.65423 80.2052 7.98804V26.5903C80.2052 26.8169 80.2505 27.0414 80.3385 27.2507C80.4265 27.4601 80.5555 27.6503 80.7181 27.8106C80.8807 27.9708 81.0738 28.098 81.2862 28.1847C81.4987 28.2714 81.7264 28.3161 81.9564 28.3161V28.3137Z" fill="white"/>
<path d="M94.7793 20.4258C95.2127 20.4278 95.6278 20.5979 95.9348 20.8993L99.5068 24.3366C99.6688 24.4846 99.7991 24.663 99.8901 24.8614C99.981 25.0599 100.031 25.2742 100.036 25.4918C100.042 25.7095 100.003 25.926 99.9222 26.1287C99.8419 26.3314 99.7206 26.516 99.5663 26.6719C99.4121 26.8277 99.2277 26.9515 99.0241 27.036C98.8205 27.1205 98.6018 27.164 98.3809 27.1639C98.16 27.1638 97.9413 27.1201 97.7378 27.0354C97.5343 26.9507 97.35 26.8267 97.1959 26.6707L93.6239 23.2239C93.3885 22.9975 93.2269 22.707 93.1598 22.3896C93.0927 22.0722 93.1231 21.7423 93.2471 21.4421C93.371 21.1418 93.583 20.8847 93.856 20.7037C94.1289 20.5227 94.4503 20.426 94.7793 20.4258Z" fill="white"/>
<path d="M100.067 0.00059697C100.391 0.00972196 100.706 0.112773 100.971 0.296895C101.237 0.481017 101.441 0.738061 101.559 1.03597C101.677 1.33387 101.704 1.65945 101.635 1.97208C101.567 2.28472 101.406 2.57058 101.174 2.79402L88.2961 15.2413C87.9803 15.5308 87.5624 15.6873 87.1312 15.6777C86.7001 15.6681 86.2898 15.493 85.9877 15.1897C85.6855 14.8864 85.5155 14.4789 85.5137 14.0539C85.5119 13.6289 85.6784 13.22 85.978 12.9142L98.8585 0.47406C99.0168 0.318501 99.2055 0.196308 99.4132 0.114914C99.6209 0.0335189 99.8432 -0.0053755 100.067 0.00059697Z" fill="white"/>
<path d="M101.668 1.63421V27.052C101.668 27.1088 101.668 27.1632 101.668 27.2177C101.668 27.2721 101.668 27.2721 101.668 27.3005C101.669 27.3202 101.669 27.34 101.668 27.3597C101.668 27.3763 101.668 27.4 101.654 27.4189C101.622 27.5629 101.569 27.7015 101.498 27.8308C101.446 27.9215 101.386 28.0078 101.32 28.0888C101.286 28.1291 101.25 28.1669 101.212 28.2048L101.154 28.2593L101.106 28.2995C101 28.3872 100.884 28.4619 100.76 28.522L100.69 28.5528C100.639 28.5746 100.586 28.5936 100.532 28.6096L100.457 28.6309C100.426 28.6309 100.397 28.6309 100.364 28.6499H100.294H100.27C100.248 28.651 100.225 28.651 100.203 28.6499C100.149 28.6535 100.095 28.6535 100.042 28.6499C99.986 28.6534 99.9298 28.6534 99.8736 28.6499L99.7898 28.638C99.7706 28.6403 99.751 28.6403 99.7322 28.638H99.6769H99.6287L99.5687 28.6215C99.306 28.543 99.0668 28.4024 98.872 28.2119L95.4609 24.9332C95.7128 25.1563 96.0249 25.3028 96.3595 25.3549C96.694 25.407 97.0367 25.3625 97.3461 25.2268C97.6556 25.0911 97.9185 24.87 98.1032 24.5902C98.2879 24.3104 98.3864 23.9839 98.3868 23.6501V5.04076C98.3869 4.70672 98.2887 4.37984 98.1041 4.09974C97.9194 3.81965 97.6562 3.59838 97.3465 3.46279C97.0367 3.3272 96.6937 3.28311 96.359 3.33587C96.0243 3.38864 95.7123 3.53599 95.4609 3.76005L98.8456 0.474233C99.0391 0.283674 99.279 0.145127 99.5422 0.0717905L99.6023 0.0528522H99.6504L99.7055 0.0410156H99.7635H99.8473C99.9026 0.0410156 99.9601 0.0410156 100.015 0.0410156C100.071 0.0410156 100.123 0.0410156 100.176 0.0410156H100.244H100.268H100.337L100.431 0.0623216C100.456 0.0687867 100.481 0.0766909 100.506 0.0859943C100.56 0.0999497 100.613 0.118973 100.664 0.142809C100.686 0.142809 100.712 0.159381 100.734 0.171218C100.857 0.231406 100.973 0.30527 101.08 0.391376C101.097 0.407948 101.113 0.419784 101.128 0.436355L101.188 0.474233C101.226 0.509783 101.262 0.547736 101.296 0.587863C101.362 0.668912 101.422 0.755218 101.473 0.845897C101.545 0.975304 101.597 1.11397 101.63 1.25781L101.644 1.31936C101.646 1.33906 101.646 1.35884 101.644 1.37854C101.644 1.40458 101.644 1.43062 101.644 1.45903C101.644 1.48744 101.668 1.57503 101.668 1.63421Z" fill="white"/>
<path d="M131.652 8.5498L126.819 22.6944H125.219L121.015 10.6212L116.792 22.6944H115.209L110.371 8.5498H111.925L116.069 20.7131L120.352 8.5498H121.774L126 20.7747L130.201 8.5498H131.652Z" fill="white"/>
<path d="M146.416 8.5498V22.6944H144.918V16.1676H135.948V22.6944H134.43V8.5498H135.948V14.8539H144.927V8.5498H146.416Z" fill="white"/>
<path d="M151.081 8.5498H152.599V22.6944H151.081V8.5498Z" fill="white"/>
<path d="M0.74 16V9H2.89C3.71667 9 4.39333 9.14333 4.92 9.43C5.45333 9.71 5.84667 10.1133 6.1 10.64C6.36 11.16 6.49 11.7867 6.49 12.52C6.49 13.24 6.36 13.86 6.1 14.38C5.84667 14.9 5.45333 15.3 4.92 15.58C4.39333 15.86 3.71667 16 2.89 16H0.74ZM1.58 15.3H2.87C3.53667 15.3 4.07 15.1933 4.47 14.98C4.87667 14.76 5.17 14.4433 5.35 14.03C5.53 13.61 5.62 13.1067 5.62 12.52C5.62 11.5667 5.4 10.86 4.96 10.4C4.52 9.93333 3.82333 9.7 2.87 9.7H1.58V15.3ZM9.88289 16.12C9.42289 16.12 9.00622 16.0133 8.63289 15.8C8.26622 15.5867 7.97622 15.2867 7.76289 14.9C7.54956 14.5067 7.44289 14.0467 7.44289 13.52C7.44289 13 7.54289 12.5467 7.74289 12.16C7.94956 11.7667 8.23622 11.4633 8.60289 11.25C8.97622 11.03 9.40956 10.92 9.90289 10.92C10.3696 10.92 10.7762 11.0233 11.1229 11.23C11.4696 11.4367 11.7396 11.7167 11.9329 12.07C12.1329 12.4167 12.2329 12.8067 12.2329 13.24C12.2329 13.3333 12.2329 13.4067 12.2329 13.46C12.2329 13.5133 12.2296 13.5967 12.2229 13.71H8.27289C8.29289 14.0367 8.36956 14.33 8.50289 14.59C8.64289 14.8433 8.82956 15.0433 9.06289 15.19C9.30289 15.3367 9.57622 15.41 9.88289 15.41C10.2296 15.41 10.5196 15.33 10.7529 15.17C10.9862 15.01 11.1562 14.7933 11.2629 14.52H12.0929C12.0062 14.8267 11.8629 15.1 11.6629 15.34C11.4629 15.58 11.2129 15.77 10.9129 15.91C10.6196 16.05 10.2762 16.12 9.88289 16.12ZM8.28289 13.06H11.4029C11.3829 12.6133 11.2296 12.2633 10.9429 12.01C10.6562 11.7567 10.3029 11.63 9.88289 11.63C9.48289 11.63 9.12622 11.7533 8.81289 12C8.50622 12.24 8.32956 12.5933 8.28289 13.06ZM15.2463 16.12C14.8529 16.12 14.4996 16.0533 14.1863 15.92C13.8729 15.78 13.6196 15.5867 13.4263 15.34C13.2396 15.0867 13.1229 14.79 13.0763 14.45H13.9363C13.9896 14.71 14.1263 14.9367 14.3463 15.13C14.5729 15.3167 14.8763 15.41 15.2563 15.41C15.6096 15.41 15.8696 15.3367 16.0363 15.19C16.2029 15.0367 16.2863 14.8567 16.2863 14.65C16.2863 14.45 16.2363 14.2967 16.1363 14.19C16.0429 14.0833 15.9029 14.0033 15.7163 13.95C15.5363 13.89 15.3129 13.8333 15.0463 13.78C14.7663 13.72 14.4929 13.64 14.2263 13.54C13.9596 13.4333 13.7396 13.29 13.5663 13.11C13.3929 12.93 13.3063 12.6933 13.3063 12.4C13.3063 12.1067 13.3796 11.85 13.5263 11.63C13.6729 11.41 13.8796 11.2367 14.1463 11.11C14.4196 10.9833 14.7396 10.92 15.1063 10.92C15.6329 10.92 16.0629 11.0533 16.3963 11.32C16.7363 11.58 16.9329 11.9533 16.9863 12.44H16.1563C16.1229 12.1867 16.0129 11.99 15.8263 11.85C15.6463 11.7033 15.4029 11.63 15.0963 11.63C14.7963 11.63 14.5629 11.6933 14.3963 11.82C14.2363 11.9467 14.1563 12.1133 14.1563 12.32C14.1563 12.4533 14.2029 12.5667 14.2963 12.66C14.3896 12.7533 14.5229 12.8333 14.6963 12.9C14.8763 12.9667 15.0863 13.0267 15.3263 13.08C15.6596 13.1467 15.9629 13.23 16.2363 13.33C16.5096 13.43 16.7296 13.5767 16.8963 13.77C17.0629 13.9567 17.1463 14.2267 17.1463 14.58C17.1529 14.8733 17.0763 15.1367 16.9163 15.37C16.7629 15.6033 16.5429 15.7867 16.2563 15.92C15.9763 16.0533 15.6396 16.12 15.2463 16.12ZM20.5763 16.12C20.1163 16.12 19.6996 16.0133 19.3263 15.8C18.9596 15.5867 18.6696 15.2867 18.4563 14.9C18.2429 14.5067 18.1363 14.0467 18.1363 13.52C18.1363 13 18.2363 12.5467 18.4363 12.16C18.6429 11.7667 18.9296 11.4633 19.2963 11.25C19.6696 11.03 20.1029 10.92 20.5962 10.92C21.0629 10.92 21.4696 11.0233 21.8163 11.23C22.1629 11.4367 22.4329 11.7167 22.6263 12.07C22.8263 12.4167 22.9263 12.8067 22.9263 13.24C22.9263 13.3333 22.9263 13.4067 22.9263 13.46C22.9263 13.5133 22.9229 13.5967 22.9163 13.71H18.9663C18.9863 14.0367 19.0629 14.33 19.1963 14.59C19.3363 14.8433 19.5229 15.0433 19.7563 15.19C19.9963 15.3367 20.2696 15.41 20.5763 15.41C20.9229 15.41 21.2129 15.33 21.4463 15.17C21.6796 15.01 21.8496 14.7933 21.9563 14.52H22.7863C22.6996 14.8267 22.5563 15.1 22.3563 15.34C22.1563 15.58 21.9063 15.77 21.6063 15.91C21.3129 16.05 20.9696 16.12 20.5763 16.12ZM18.9762 13.06H22.0963C22.0763 12.6133 21.9229 12.2633 21.6363 12.01C21.3496 11.7567 20.9963 11.63 20.5763 11.63C20.1763 11.63 19.8196 11.7533 19.5063 12C19.1996 12.24 19.0229 12.5933 18.9762 13.06ZM24.0396 16V11.04H24.7996L24.8496 11.93C25.0096 11.6167 25.2396 11.37 25.5396 11.19C25.8396 11.01 26.1796 10.92 26.5596 10.92C27.1463 10.92 27.6129 11.1 27.9596 11.46C28.3129 11.8133 28.4896 12.36 28.4896 13.1V16H27.6496V13.19C27.6496 12.6767 27.5429 12.29 27.3296 12.03C27.1163 11.77 26.7963 11.64 26.3696 11.64C25.9429 11.64 25.5863 11.7967 25.2996 12.11C25.0196 12.4167 24.8796 12.8567 24.8796 13.43V16H24.0396ZM31.1044 16L29.2244 11.04H30.1044L31.5944 15.19L33.0944 11.04H33.9544L32.0744 16H31.1044ZM36.9253 16.12C36.472 16.12 36.0553 16.02 35.6753 15.82C35.2953 15.6133 34.992 15.3167 34.7653 14.93C34.5386 14.5367 34.4253 14.0633 34.4253 13.51C34.4253 12.9833 34.5353 12.5267 34.7553 12.14C34.982 11.7533 35.2853 11.4533 35.6653 11.24C36.052 11.0267 36.4853 10.92 36.9653 10.92C37.4253 10.92 37.8453 11.02 38.2253 11.22C38.612 11.42 38.922 11.7133 39.1553 12.1C39.3886 12.4867 39.5053 12.9567 39.5053 13.51C39.5053 14.0167 39.3953 14.4667 39.1753 14.86C38.9553 15.2533 38.6486 15.5633 38.2553 15.79C37.8686 16.01 37.4253 16.12 36.9253 16.12ZM36.9253 15.39C37.252 15.39 37.5453 15.3133 37.8053 15.16C38.0653 15 38.272 14.78 38.4253 14.5C38.5786 14.22 38.6553 13.89 38.6553 13.51C38.6553 13.15 38.5886 12.83 38.4553 12.55C38.322 12.27 38.1286 12.05 37.8753 11.89C37.622 11.73 37.3153 11.65 36.9553 11.65C36.5886 11.65 36.2786 11.7333 36.0253 11.9C35.7786 12.0667 35.592 12.29 35.4653 12.57C35.3386 12.85 35.2753 13.1633 35.2753 13.51C35.2753 13.95 35.3553 14.31 35.5153 14.59C35.6753 14.8633 35.882 15.0667 36.1353 15.2C36.3886 15.3267 36.652 15.39 36.9253 15.39ZM40.6705 16V9H41.5105V16H40.6705ZM44.3173 16L42.4373 11.04H43.3173L44.8073 15.19L46.3073 11.04H47.1673L45.2873 16H44.3173ZM48.6121 9.94C48.4454 9.94 48.3054 9.88667 48.1921 9.78C48.0854 9.66667 48.0321 9.52667 48.0321 9.36C48.0321 9.2 48.0854 9.06667 48.1921 8.96C48.3054 8.85333 48.4454 8.8 48.6121 8.8C48.7721 8.8 48.9088 8.85333 49.0221 8.96C49.1354 9.06667 49.1921 9.2 49.1921 9.36C49.1921 9.52667 49.1354 9.66667 49.0221 9.78C48.9088 9.88667 48.7721 9.94 48.6121 9.94ZM48.1921 16V11.04H49.0321V16H48.1921ZM52.7447 16.12C52.238 16.12 51.8014 16.0033 51.4347 15.77C51.068 15.5367 50.7847 15.2233 50.5847 14.83C50.3847 14.4367 50.2847 13.9967 50.2847 13.51C50.2847 13.03 50.3814 12.5933 50.5747 12.2C50.7747 11.8067 51.058 11.4967 51.4247 11.27C51.7914 11.0367 52.2347 10.92 52.7547 10.92C53.1614 10.92 53.5214 11.0033 53.8347 11.17C54.148 11.3367 54.3914 11.57 54.5647 11.87V9H55.4047V16H54.6447L54.5647 15.18C54.4047 15.42 54.1747 15.6367 53.8747 15.83C53.5747 16.0233 53.198 16.12 52.7447 16.12ZM52.8347 15.39C53.2014 15.39 53.5114 15.3067 53.7647 15.14C54.018 14.9667 54.208 14.74 54.3347 14.46C54.468 14.1733 54.5347 13.86 54.5347 13.52C54.5347 13.16 54.468 12.84 54.3347 12.56C54.2014 12.28 54.008 12.06 53.7547 11.9C53.5014 11.7333 53.1947 11.65 52.8347 11.65C52.5147 11.65 52.228 11.7267 51.9747 11.88C51.7214 12.0333 51.518 12.25 51.3647 12.53C51.218 12.8033 51.1447 13.1333 51.1447 13.52C51.1447 13.9067 51.2214 14.24 51.3747 14.52C51.528 14.8 51.7314 15.0167 51.9847 15.17C52.2447 15.3167 52.528 15.39 52.8347 15.39ZM59.064 16.12C58.6107 16.12 58.194 16.02 57.814 15.82C57.434 15.6133 57.1307 15.3167 56.904 14.93C56.6773 14.5367 56.564 14.0633 56.564 13.51C56.564 12.9833 56.674 12.5267 56.894 12.14C57.1207 11.7533 57.424 11.4533 57.804 11.24C58.1907 11.0267 58.624 10.92 59.104 10.92C59.564 10.92 59.984 11.02 60.364 11.22C60.7507 11.42 61.0607 11.7133 61.294 12.1C61.5273 12.4867 61.644 12.9567 61.644 13.51C61.644 14.0167 61.534 14.4667 61.314 14.86C61.094 15.2533 60.7873 15.5633 60.394 15.79C60.0073 16.01 59.564 16.12 59.064 16.12ZM59.064 15.39C59.3907 15.39 59.684 15.3133 59.944 15.16C60.204 15 60.4107 14.78 60.564 14.5C60.7173 14.22 60.794 13.89 60.794 13.51C60.794 13.15 60.7273 12.83 60.594 12.55C60.4607 12.27 60.2673 12.05 60.014 11.89C59.7607 11.73 59.454 11.65 59.094 11.65C58.7273 11.65 58.4173 11.7333 58.164 11.9C57.9173 12.0667 57.7307 12.29 57.604 12.57C57.4773 12.85 57.414 13.1633 57.414 13.51C57.414 13.95 57.494 14.31 57.654 14.59C57.814 14.8633 58.0207 15.0667 58.274 15.2C58.5273 15.3267 58.7907 15.39 59.064 15.39ZM2.92 29.12C2.46 29.12 2.04333 29.0133 1.67 28.8C1.30333 28.5867 1.01333 28.2867 0.8 27.9C0.586667 27.5067 0.48 27.0467 0.48 26.52C0.48 26 0.58 25.5467 0.78 25.16C0.986667 24.7667 1.27333 24.4633 1.64 24.25C2.01333 24.03 2.44667 23.92 2.94 23.92C3.40667 23.92 3.81333 24.0233 4.16 24.23C4.50667 24.4367 4.77667 24.7167 4.97 25.07C5.17 25.4167 5.27 25.8067 5.27 26.24C5.27 26.3333 5.27 26.4067 5.27 26.46C5.27 26.5133 5.26667 26.5967 5.26 26.71H1.31C1.33 27.0367 1.40667 27.33 1.54 27.59C1.68 27.8433 1.86667 28.0433 2.1 28.19C2.34 28.3367 2.61333 28.41 2.92 28.41C3.26667 28.41 3.55667 28.33 3.79 28.17C4.02333 28.01 4.19333 27.7933 4.3 27.52H5.13C5.04333 27.8267 4.9 28.1 4.7 28.34C4.5 28.58 4.25 28.77 3.95 28.91C3.65667 29.05 3.31333 29.12 2.92 29.12ZM1.32 26.06H4.44C4.42 25.6133 4.26667 25.2633 3.98 25.01C3.69333 24.7567 3.34 24.63 2.92 24.63C2.52 24.63 2.16333 24.7533 1.85 25C1.54333 25.24 1.36667 25.5933 1.32 26.06ZM12.1498 29.12C11.4432 29.12 10.8398 28.9633 10.3398 28.65C9.83984 28.33 9.45984 27.8967 9.19984 27.35C8.93984 26.8033 8.80984 26.1867 8.80984 25.5C8.80984 24.82 8.93651 24.2067 9.18984 23.66C9.44984 23.1133 9.82984 22.68 10.3298 22.36C10.8298 22.04 11.4365 21.88 12.1498 21.88C12.9498 21.88 13.5998 22.0733 14.0998 22.46C14.6065 22.84 14.9298 23.3733 15.0698 24.06H14.1398C14.0332 23.6267 13.8132 23.28 13.4798 23.02C13.1532 22.7533 12.7098 22.62 12.1498 22.62C11.5965 22.62 11.1365 22.75 10.7698 23.01C10.4032 23.2633 10.1265 23.6067 9.93984 24.04C9.75984 24.4733 9.66984 24.96 9.66984 25.5C9.66984 26.0533 9.76318 26.5467 9.94984 26.98C10.1432 27.4133 10.4232 27.7567 10.7898 28.01C11.1565 28.2567 11.6098 28.38 12.1498 28.38C12.7098 28.38 13.1532 28.2533 13.4798 28C13.8132 27.74 14.0332 27.3967 14.1398 26.97H15.0698C14.9298 27.6433 14.6065 28.17 14.0998 28.55C13.5998 28.93 12.9498 29.12 12.1498 29.12ZM16.2271 29V24.04H16.9871L17.0571 24.99C17.2104 24.6633 17.4438 24.4033 17.7571 24.21C18.0704 24.0167 18.4571 23.92 18.9171 23.92V24.8H18.6871C18.1404 24.8 17.7338 24.9467 17.4671 25.24C17.2004 25.5333 17.0671 25.9533 17.0671 26.5V29H16.2271ZM20.3699 22.94C20.2033 22.94 20.0633 22.8867 19.9499 22.78C19.8433 22.6667 19.7899 22.5267 19.7899 22.36C19.7899 22.2 19.8433 22.0667 19.9499 21.96C20.0633 21.8533 20.2033 21.8 20.3699 21.8C20.5299 21.8 20.6666 21.8533 20.7799 21.96C20.8933 22.0667 20.9499 22.2 20.9499 22.36C20.9499 22.5267 20.8933 22.6667 20.7799 22.78C20.6666 22.8867 20.5299 22.94 20.3699 22.94ZM19.9499 29V24.04H20.7899V29H19.9499ZM23.9025 29.12C23.5625 29.12 23.2525 29.0633 22.9725 28.95C22.6925 28.8367 22.4692 28.6667 22.3025 28.44C22.1425 28.2067 22.0625 27.9233 22.0625 27.59C22.0625 27.2033 22.1625 26.8967 22.3625 26.67C22.5625 26.4367 22.8258 26.27 23.1525 26.17C23.4858 26.0633 23.8425 26.01 24.2225 26.01H25.5625C25.5625 25.6633 25.5025 25.39 25.3825 25.19C25.2692 24.99 25.1192 24.8467 24.9325 24.76C24.7458 24.6733 24.5392 24.63 24.3125 24.63C23.9858 24.63 23.7025 24.71 23.4625 24.87C23.2292 25.0233 23.0825 25.2633 23.0225 25.59H22.1625C22.1958 25.23 22.3158 24.9267 22.5225 24.68C22.7292 24.4333 22.9892 24.2467 23.3025 24.12C23.6225 23.9867 23.9592 23.92 24.3125 23.92C24.8125 23.92 25.2158 24.0133 25.5225 24.2C25.8292 24.38 26.0525 24.6233 26.1925 24.93C26.3325 25.2367 26.4025 25.5767 26.4025 25.95V27.47C26.4025 27.7167 26.4325 27.9033 26.4925 28.03C26.5525 28.1567 26.7058 28.2333 26.9525 28.26V29C26.7325 29 26.5325 28.9733 26.3525 28.92C26.1725 28.86 26.0192 28.7667 25.8925 28.64C25.7725 28.5067 25.6858 28.3333 25.6325 28.12C25.4658 28.4 25.2358 28.6367 24.9425 28.83C24.6558 29.0233 24.3092 29.12 23.9025 29.12ZM24.0325 28.41C24.3658 28.41 24.6458 28.3267 24.8725 28.16C25.0992 27.9867 25.2692 27.7667 25.3825 27.5C25.5025 27.2333 25.5625 26.9567 25.5625 26.67V26.66H24.2925C24.0592 26.66 23.8392 26.6867 23.6325 26.74C23.4258 26.7867 23.2592 26.8767 23.1325 27.01C23.0058 27.1367 22.9425 27.3167 22.9425 27.55C22.9425 27.85 23.0492 28.07 23.2625 28.21C23.4758 28.3433 23.7325 28.41 24.0325 28.41ZM30.0982 29.12C29.5915 29.12 29.1549 29.0033 28.7882 28.77C28.4215 28.5367 28.1382 28.2233 27.9382 27.83C27.7382 27.4367 27.6382 26.9967 27.6382 26.51C27.6382 26.03 27.7349 25.5933 27.9282 25.2C28.1282 24.8067 28.4115 24.4967 28.7782 24.27C29.1449 24.0367 29.5882 23.92 30.1082 23.92C30.5149 23.92 30.8749 24.0033 31.1882 24.17C31.5015 24.3367 31.7449 24.57 31.9182 24.87V22H32.7582V29H31.9982L31.9182 28.18C31.7582 28.42 31.5282 28.6367 31.2282 28.83C30.9282 29.0233 30.5515 29.12 30.0982 29.12ZM30.1882 28.39C30.5549 28.39 30.8649 28.3067 31.1182 28.14C31.3715 27.9667 31.5615 27.74 31.6882 27.46C31.8215 27.1733 31.8882 26.86 31.8882 26.52C31.8882 26.16 31.8215 25.84 31.6882 25.56C31.5549 25.28 31.3615 25.06 31.1082 24.9C30.8549 24.7333 30.5482 24.65 30.1882 24.65C29.8682 24.65 29.5815 24.7267 29.3282 24.88C29.0749 25.0333 28.8715 25.25 28.7182 25.53C28.5715 25.8033 28.4982 26.1333 28.4982 26.52C28.4982 26.9067 28.5749 27.24 28.7282 27.52C28.8815 27.8 29.0849 28.0167 29.3382 28.17C29.5982 28.3167 29.8815 28.39 30.1882 28.39ZM36.4175 29.12C35.9642 29.12 35.5475 29.02 35.1675 28.82C34.7875 28.6133 34.4842 28.3167 34.2575 27.93C34.0308 27.5367 33.9175 27.0633 33.9175 26.51C33.9175 25.9833 34.0275 25.5267 34.2475 25.14C34.4742 24.7533 34.7775 24.4533 35.1575 24.24C35.5442 24.0267 35.9775 23.92 36.4575 23.92C36.9175 23.92 37.3375 24.02 37.7175 24.22C38.1042 24.42 38.4142 24.7133 38.6475 25.1C38.8808 25.4867 38.9975 25.9567 38.9975 26.51C38.9975 27.0167 38.8875 27.4667 38.6675 27.86C38.4475 28.2533 38.1408 28.5633 37.7475 28.79C37.3608 29.01 36.9175 29.12 36.4175 29.12ZM36.4175 28.39C36.7442 28.39 37.0375 28.3133 37.2975 28.16C37.5575 28 37.7642 27.78 37.9175 27.5C38.0708 27.22 38.1475 26.89 38.1475 26.51C38.1475 26.15 38.0808 25.83 37.9475 25.55C37.8142 25.27 37.6208 25.05 37.3675 24.89C37.1142 24.73 36.8075 24.65 36.4475 24.65C36.0808 24.65 35.7708 24.7333 35.5175 24.9C35.2708 25.0667 35.0842 25.29 34.9575 25.57C34.8308 25.85 34.7675 26.1633 34.7675 26.51C34.7675 26.95 34.8475 27.31 35.0075 27.59C35.1675 27.8633 35.3742 28.0667 35.6275 28.2C35.8808 28.3267 36.1442 28.39 36.4175 28.39ZM42.8091 31.2V24.04H43.5691L43.6491 24.86C43.8091 24.62 44.0358 24.4033 44.3291 24.21C44.6291 24.0167 45.0091 23.92 45.4691 23.92C45.9691 23.92 46.4025 24.0333 46.7691 24.26C47.1358 24.4867 47.4191 24.7967 47.6191 25.19C47.8191 25.5833 47.9191 26.03 47.9191 26.53C47.9191 27.0233 47.8191 27.4667 47.6191 27.86C47.4191 28.2533 47.1325 28.5633 46.7591 28.79C46.3925 29.01 45.9591 29.12 45.4591 29.12C45.0525 29.12 44.6891 29.0367 44.3691 28.87C44.0558 28.7033 43.8158 28.47 43.6491 28.17V31.2H42.8091ZM45.3691 28.39C45.7091 28.39 46.0058 28.3133 46.2591 28.16C46.5125 28 46.7091 27.78 46.8491 27.5C46.9958 27.2133 47.0691 26.8867 47.0691 26.52C47.0691 26.1667 46.9991 25.85 46.8591 25.57C46.7258 25.2833 46.5325 25.06 46.2791 24.9C46.0258 24.7333 45.7225 24.65 45.3691 24.65C45.0358 24.65 44.7391 24.73 44.4791 24.89C44.2258 25.0433 44.0258 25.26 43.8791 25.54C43.7391 25.82 43.6691 26.1467 43.6691 26.52C43.6691 26.8667 43.7391 27.1833 43.8791 27.47C44.0191 27.75 44.2158 27.9733 44.4691 28.14C44.7225 28.3067 45.0225 28.39 45.3691 28.39ZM51.3784 29.12C50.9251 29.12 50.5084 29.02 50.1284 28.82C49.7484 28.6133 49.4451 28.3167 49.2184 27.93C48.9918 27.5367 48.8784 27.0633 48.8784 26.51C48.8784 25.9833 48.9884 25.5267 49.2084 25.14C49.4351 24.7533 49.7384 24.4533 50.1184 24.24C50.5051 24.0267 50.9384 23.92 51.4184 23.92C51.8784 23.92 52.2984 24.02 52.6784 24.22C53.0651 24.42 53.3751 24.7133 53.6084 25.1C53.8418 25.4867 53.9584 25.9567 53.9584 26.51C53.9584 27.0167 53.8484 27.4667 53.6284 27.86C53.4084 28.2533 53.1018 28.5633 52.7084 28.79C52.3218 29.01 51.8784 29.12 51.3784 29.12ZM51.3784 28.39C51.7051 28.39 51.9984 28.3133 52.2584 28.16C52.5184 28 52.7251 27.78 52.8784 27.5C53.0318 27.22 53.1084 26.89 53.1084 26.51C53.1084 26.15 53.0418 25.83 52.9084 25.55C52.7751 25.27 52.5818 25.05 52.3284 24.89C52.0751 24.73 51.7684 24.65 51.4084 24.65C51.0418 24.65 50.7318 24.7333 50.4784 24.9C50.2318 25.0667 50.0451 25.29 49.9184 25.57C49.7918 25.85 49.7284 26.1633 49.7284 26.51C49.7284 26.95 49.8084 27.31 49.9684 27.59C50.1284 27.8633 50.3351 28.0667 50.5884 28.2C50.8418 28.3267 51.1051 28.39 51.3784 28.39ZM55.1236 29V24.04H55.8836L55.9536 24.99C56.1069 24.6633 56.3403 24.4033 56.6536 24.21C56.9669 24.0167 57.3536 23.92 57.8136 23.92V24.8H57.5836C57.0369 24.8 56.6303 24.9467 56.3636 25.24C56.0969 25.5333 55.9636 25.9533 55.9636 26.5V29H55.1236ZM59.2124 25.06C59.0458 25.06 58.9058 25.0067 58.7924 24.9C58.6858 24.7867 58.6324 24.65 58.6324 24.49C58.6324 24.33 58.6858 24.1967 58.7924 24.09C58.9058 23.9767 59.0458 23.92 59.2124 23.92C59.3724 23.92 59.5058 23.9767 59.6124 24.09C59.7258 24.1967 59.7824 24.33 59.7824 24.49C59.7824 24.65 59.7258 24.7867 59.6124 24.9C59.5058 25.0067 59.3724 25.06 59.2124 25.06ZM59.2124 29.05C59.0458 29.05 58.9058 28.9967 58.7924 28.89C58.6858 28.7767 58.6324 28.64 58.6324 28.48C58.6324 28.32 58.6858 28.1867 58.7924 28.08C58.9058 27.9667 59.0458 27.91 59.2124 27.91C59.3724 27.91 59.5058 27.9667 59.6124 28.08C59.7258 28.1867 59.7824 28.32 59.7824 28.48C59.7824 28.64 59.7258 28.7767 59.6124 28.89C59.5058 28.9967 59.3724 29.05 59.2124 29.05Z" fill="white"/>
</svg>
