<svg width="54" height="71" viewBox="0 0 54 71" fill="none" xmlns="http://www.w3.org/2000/svg">
<mask id="mask0_352_10" style="mask-type:luminance" maskUnits="userSpaceOnUse" x="10" y="14" width="28" height="45">
<path d="M28.6334 16.9946L37.3861 14.5339L37.9678 49.6961L10.9163 58.1502L10.0281 43.3978C10.0281 43.3978 25.0732 40.8988 27.5942 40.4916C29.7898 40.1369 30.5772 38.056 30.3653 35.8753C30.1535 33.6945 28.6334 16.9946 28.6334 16.9946Z" fill="white"/>
</mask>
<g mask="url(#mask0_352_10)">
<path d="M15.9157 32.9124L19.1856 35.6054L23.1621 28.4254" stroke="black" stroke-width="2.684" stroke-linecap="round" stroke-linejoin="round"/>
</g>
<path d="M1.34345 16.2187L9.54985 4.90542L30.7073 1.48835C31.509 1.35887 32.3079 1.58022 32.9286 2.10499C33.5493 2.62906 33.9407 3.41231 34.0168 4.28313L37.748 46.962C37.8242 47.8328 37.5787 48.719 37.0656 49.4261C36.5527 50.134 35.8142 50.6036 35.0125 50.7331L7.81005 55.1265C6.14086 55.3961 4.65912 54.1448 4.50061 52.3317L1.34345 16.2187Z" stroke="white" stroke-width="2.684" stroke-linecap="round" stroke-linejoin="round"/>
<mask id="mask1_352_10" style="mask-type:alpha" maskUnits="userSpaceOnUse" x="1" y="1" width="37" height="55">
<path d="M4.93937 52.2893L1.50419 15.8775L9.48801 4.65507L30.3643 1.53064C31.1331 1.41559 31.9018 1.64246 32.5052 2.16649C33.1078 2.69102 33.4934 3.46614 33.5744 4.32487L37.6378 47.3956C37.7188 48.2544 37.4883 49.1231 37 49.8094C36.5109 50.497 35.8057 50.9444 35.037 51.0595L8.14825 55.0837C6.55151 55.3227 5.10837 54.0807 4.93937 52.2893Z" fill="#FF0000" stroke="white" stroke-width="0.16775"/>
</mask>
<g mask="url(#mask1_352_10)">
<path d="M9.95493 43.1081L28.9516 18.3109L45.3308 15.6687C46.1312 15.5394 46.9287 15.7604 47.5483 16.2845C48.168 16.8078 48.5588 17.59 48.6347 18.4596L56.3433 71.2138C56.4193 72.0834 56.1742 72.9684 55.662 73.6746C55.1499 74.3816 54.4126 74.8505 53.6123 74.9798L16.0672 77.3411C14.4008 77.6104 12.9216 76.3609 12.7634 74.5503L9.95493 43.1081Z" stroke="white" stroke-width="2.684" stroke-linecap="round" stroke-linejoin="round"/>
</g>
<path d="M1.4786 30.099L8.9831 28.8859C10.6409 28.6179 11.8573 26.9404 11.7 25.1392L10.9877 16.9851" stroke="black" stroke-width="2.684" stroke-miterlimit="10"/>
<path d="M9.93696 42.9214L27.5762 40.1381C29.233 39.8704 30.4488 38.1939 30.2915 36.394L28.5706 17.9473" stroke="#1FAD90" stroke-width="2.684" stroke-miterlimit="10"/>
</svg>
