<svg width="38" height="47" viewBox="0 0 38 47" fill="none" xmlns="http://www.w3.org/2000/svg">
<path d="M10.6454 16.3583C10.0019 16.3558 9.38537 16.1074 8.92974 15.667L3.60801 10.6482C3.16089 10.2033 2.91083 9.60667 2.91113 8.9856C2.91144 8.36454 3.1621 7.76816 3.60966 7.32363C4.05722 6.8791 4.66627 6.62158 5.30696 6.60598C5.94765 6.59038 6.56928 6.81794 7.03931 7.24013L12.361 12.2728C12.7106 12.6035 12.9505 13.0276 13.0501 13.491C13.1498 13.9544 13.1047 14.436 12.9205 14.8745C12.7364 15.3129 12.4217 15.6882 12.0164 15.9525C11.6112 16.2168 11.1339 16.3581 10.6454 16.3583Z" fill="url(#paint0_linear_507_36)"/>
<path d="M2.79463 46.1774C2.31341 46.1632 1.8471 46.0123 1.45361 45.7434C1.06012 45.4746 0.756782 45.0997 0.581257 44.6653C0.405732 44.2308 0.365753 43.756 0.466285 43.2997C0.566817 42.8435 0.803431 42.4259 1.14675 42.0988L20.2722 23.928C20.5024 23.7092 20.7748 23.5365 21.0739 23.4198C21.373 23.303 21.6929 23.2445 22.0153 23.2475C22.3378 23.2506 22.6564 23.3152 22.9531 23.4376C23.2498 23.5599 23.5187 23.7378 23.7445 23.9609C23.9703 24.184 24.1485 24.448 24.269 24.7378C24.3894 25.0276 24.4498 25.3376 24.4467 25.6501C24.4435 25.9626 24.3769 26.2714 24.2506 26.5589C24.1243 26.8464 23.9408 27.107 23.7106 27.3258L4.58875 45.5C4.3524 45.7244 4.07159 45.9002 3.76324 46.0166C3.45489 46.1331 3.12539 46.1878 2.79463 46.1774Z" fill="url(#paint1_linear_507_36)"/>
<path d="M7.92716 41.3418C8.5709 41.3421 9.19205 41.1119 9.67134 40.6955L4.60642 45.4827C4.31715 45.7608 3.96203 45.9661 3.57204 46.0807L3.48287 46.1049L3.41153 46.1221H3.3295H3.24033L3.11905 46.1394C3.03701 46.1394 2.95141 46.1394 2.86937 46.1394C2.78734 46.1394 2.70886 46.1394 2.63039 46.1394H2.53409H2.49485H2.38785L2.25231 46.1118L2.13817 46.0772C2.05883 46.0553 1.98133 46.0275 1.90632 45.9942L1.80289 45.9528C1.61781 45.8666 1.44514 45.7574 1.28926 45.6279C1.26233 45.6108 1.23827 45.5898 1.21792 45.5656C1.18694 45.543 1.15828 45.5175 1.13232 45.4896C1.07509 45.4366 1.02147 45.38 0.971814 45.3202C0.872184 45.2002 0.783847 45.0718 0.707865 44.9366C0.603167 44.7467 0.524052 44.5445 0.472455 44.3351C0.472455 44.304 0.472454 44.2729 0.45462 44.2453C0.452627 44.2176 0.452627 44.1899 0.45462 44.1623C0.45462 44.1208 0.45462 44.0828 0.45462 44.0413C0.45462 43.9999 0.45462 43.8823 0.45462 43.7994V6.68362C0.45462 6.60067 0.45462 6.52117 0.45462 6.44167C0.45462 6.36217 0.45462 6.36217 0.45462 6.32069C0.45331 6.28839 0.454503 6.25604 0.458188 6.22391C0.458188 6.19626 0.458189 6.1686 0.476023 6.1375C0.526196 5.92706 0.604116 5.72376 0.707865 5.53261C0.785763 5.41047 0.874054 5.29486 0.971814 5.18696C1.02055 5.12644 1.07423 5.0698 1.13232 5.01759C1.15828 4.98965 1.18694 4.96419 1.21792 4.94155C1.23812 4.91628 1.26218 4.89413 1.28926 4.87588C1.44623 4.74874 1.61873 4.64078 1.80289 4.55443L1.90632 4.51295C1.98124 4.47851 2.05875 4.44962 2.13817 4.42654L2.25231 4.39543L2.38785 4.36432H2.49485H2.53409H2.63039C2.70886 4.36432 2.78734 4.36432 2.86937 4.36432C2.95141 4.36432 3.03701 4.36432 3.11905 4.36432H3.24033H3.3295H3.41153L3.48287 4.3816L3.57204 4.4058C3.9625 4.51929 4.31788 4.72473 4.60642 5.00377L9.67134 9.791C9.29732 9.46521 8.83394 9.25136 8.3372 9.17528C7.84045 9.0992 7.3316 9.16415 6.87213 9.36228C6.41266 9.56042 6.02223 9.88326 5.74802 10.2918C5.47381 10.7003 5.32756 11.1771 5.32693 11.6644V38.8255C5.32693 39.1564 5.39418 39.4841 5.52486 39.7898C5.65553 40.0955 5.84706 40.3733 6.08852 40.6072C6.32997 40.8412 6.61662 41.0268 6.93209 41.1535C7.24757 41.2801 7.58569 41.3453 7.92716 41.3453V41.3418Z" fill="#F89623"/>
<path d="M26.9671 29.8248C27.6106 29.8277 28.227 30.0761 28.6828 30.5161L33.9867 35.5349C34.2273 35.751 34.4208 36.0116 34.5558 36.3013C34.6908 36.591 34.7646 36.904 34.7728 37.2217C34.7811 37.5395 34.7236 37.8557 34.6038 38.1516C34.4839 38.4475 34.3042 38.7172 34.0751 38.9447C33.846 39.1722 33.5723 39.353 33.27 39.4764C32.9676 39.5997 32.6429 39.6632 32.3149 39.6631C31.9869 39.6629 31.6622 39.5991 31.36 39.4755C31.0578 39.3518 30.7842 39.1708 30.5554 38.943L25.2515 33.9104C24.902 33.5797 24.6621 33.1556 24.5624 32.6922C24.4628 32.2288 24.5079 31.7471 24.692 31.3087C24.8761 30.8703 25.1909 30.4949 25.5961 30.2306C26.0014 29.9663 26.4787 29.8251 26.9671 29.8248Z" fill="url(#paint2_linear_507_36)"/>
<path d="M34.818 0.00233648C35.2997 0.0156598 35.7667 0.166123 36.1607 0.434959C36.5547 0.703795 36.8583 1.0791 37.0337 1.51407C37.2091 1.94904 37.2484 2.42441 37.1468 2.88089C37.0451 3.33737 36.8071 3.75476 36.4623 4.08099L17.3404 22.2552C16.8716 22.6779 16.251 22.9065 15.6108 22.8924C14.9706 22.8784 14.3614 22.6227 13.9128 22.1799C13.4642 21.7371 13.2117 21.142 13.209 20.5215C13.2063 19.901 13.4537 19.3039 13.8984 18.8575L33.0238 0.693634C33.2589 0.466507 33.5391 0.288093 33.8476 0.169249C34.156 0.0504055 34.4862 -0.00638391 34.818 0.00233648Z" fill="url(#paint3_linear_507_36)"/>
<path d="M37.1967 2.38725V39.4995C37.1967 39.5825 37.1967 39.662 37.1967 39.7415C37.1967 39.821 37.1967 39.821 37.1967 39.8625C37.1984 39.8913 37.1984 39.9201 37.1967 39.9489C37.1967 39.9731 37.1967 40.0076 37.1753 40.0353C37.1281 40.2455 37.05 40.448 36.9435 40.6367C36.8663 40.7691 36.778 40.8951 36.6795 41.0135C36.6296 41.0722 36.5761 41.1276 36.519 41.1829L36.4334 41.2624L36.3621 41.3211C36.205 41.4491 36.0325 41.5582 35.8484 41.646L35.745 41.691C35.6681 41.7228 35.5896 41.7504 35.5096 41.7739L35.399 41.805C35.3526 41.805 35.3098 41.805 35.2599 41.8327H35.1565H35.1208C35.0875 41.8344 35.0542 41.8344 35.0209 41.8327C34.9414 41.8379 34.8615 41.8379 34.7819 41.8327C34.6988 41.8378 34.6154 41.8378 34.5323 41.8327L34.4074 41.8154C34.379 41.8187 34.3503 41.8187 34.3218 41.8154H34.2398H34.1684L34.0793 41.7912C33.6893 41.6767 33.3342 41.4714 33.0449 41.1932L27.98 36.406C28.354 36.7318 28.8174 36.9456 29.3141 37.0217C29.8109 37.0978 30.3197 37.0328 30.7792 36.8347C31.2387 36.6366 31.6291 36.3137 31.9033 35.9052C32.1775 35.4967 32.3238 35.0199 32.3244 34.5326V7.36113C32.3246 6.87343 32.1788 6.39613 31.9046 5.98716C31.6304 5.57819 31.2396 5.25512 30.7797 5.05714C30.3197 4.85917 29.8104 4.7948 29.3134 4.87184C28.8164 4.94888 28.3532 5.16403 27.98 5.49118L33.0057 0.693572C33.293 0.415339 33.6491 0.213047 34.04 0.105969L34.1292 0.0783176H34.2006L34.2826 0.0610352H34.3682H34.493C34.5751 0.0610352 34.6607 0.0610352 34.7427 0.0610352C34.8247 0.0610352 34.9032 0.0610352 34.9817 0.0610352H35.0816H35.1172H35.2207L35.3598 0.0921435C35.3973 0.101584 35.4342 0.113125 35.4704 0.126708C35.5514 0.147085 35.6302 0.174861 35.7058 0.209664C35.7379 0.209664 35.7771 0.233859 35.8092 0.251142C35.9925 0.339023 36.1648 0.446871 36.3228 0.572595C36.3478 0.596791 36.3728 0.614073 36.3942 0.638268L36.4833 0.693572C36.5405 0.745477 36.5941 0.800896 36.6438 0.859484C36.7424 0.977823 36.8306 1.10384 36.9078 1.23624C37.0138 1.42518 37.0919 1.62764 37.1396 1.83767L37.161 1.92754C37.1633 1.9563 37.1633 1.98519 37.161 2.01395C37.161 2.05197 37.161 2.08999 37.161 2.13147C37.161 2.17295 37.1967 2.30084 37.1967 2.38725Z" fill="#1FAD90"/>
<defs>
<linearGradient id="paint0_linear_507_36" x1="3.80776" y1="7.72404" x2="14.1254" y2="17.5527" gradientUnits="userSpaceOnUse">
<stop stop-color="#CC6517"/>
<stop offset="1" stop-color="#F89623"/>
</linearGradient>
<linearGradient id="paint1_linear_507_36" x1="0.411979" y1="34.7123" x2="24.4489" y2="34.7123" gradientUnits="userSpaceOnUse">
<stop stop-color="#CC6517"/>
<stop offset="1" stop-color="#F89623"/>
</linearGradient>
<linearGradient id="paint2_linear_507_36" x1="33.8012" y1="38.4591" x2="23.4834" y2="28.634" gradientUnits="userSpaceOnUse">
<stop stop-color="#178E72"/>
<stop offset="1" stop-color="#1FAD90"/>
</linearGradient>
<linearGradient id="paint3_linear_507_36" x1="37.4004" y1="0.00233577" x2="14.5207" y2="22.8738" gradientUnits="userSpaceOnUse">
<stop stop-color="#178E72"/>
<stop offset="1" stop-color="#1FAD90"/>
</linearGradient>
</defs>
</svg>
