<svg width="60" height="60" viewBox="0 0 60 60" fill="none" xmlns="http://www.w3.org/2000/svg">
<path d="M43.1301 31.2249C42.4201 37.1374 38.5476 39.4999 36.8751 41.2149C35.2001 42.9349 35.5001 43.2774 35.6126 45.7999C35.6314 46.112 35.5861 46.4246 35.4794 46.7185C35.3728 47.0124 35.2071 47.2814 34.9925 47.5088C34.778 47.7362 34.5191 47.9173 34.232 48.0409C33.9448 48.1645 33.6353 48.228 33.3226 48.2274H26.6776C26.3652 48.2269 26.0561 48.1627 25.7693 48.0387C25.4825 47.9148 25.2239 47.7338 25.0094 47.5066C24.7949 47.2794 24.6289 47.011 24.5216 46.7175C24.4142 46.4241 24.3678 46.1119 24.3851 45.7999C24.3851 43.3249 24.6151 42.7499 23.1251 41.2149C21.2251 39.3149 16.7551 36.6324 16.7551 29.2549C16.7437 27.4224 17.1121 25.6074 17.8369 23.9243C18.5618 22.2412 19.6275 20.7266 20.9668 19.4758C22.3061 18.225 23.89 17.2652 25.6186 16.657C27.3472 16.0487 29.1832 15.8051 31.0106 15.9416C32.8381 16.0781 34.6174 16.5917 36.2365 17.45C37.8556 18.3083 39.2794 19.4928 40.418 20.9286C41.5566 22.3645 42.3855 24.0207 42.8522 25.7928C43.319 27.5649 43.4137 29.4144 43.1301 31.2249Z" stroke="white" stroke-width="1.5" stroke-linecap="round" stroke-linejoin="round"/>
<path d="M26.1504 48.0899V51.8699C26.1504 52.9024 26.7254 53.7499 27.4329 53.7499H32.5654C33.2779 53.7499 33.8504 52.8999 33.8504 51.8699V48.0899M28.0504 21.7399C26.5742 21.7405 25.1588 22.3274 24.1152 23.3714C23.0716 24.4155 22.4854 25.8312 22.4854 27.3074M48.3304 29.7599H52.9154M43.7154 14.7299L46.9679 11.4774M46.2154 42.4999L49.4679 45.7499M30.0004 5.94238V9.64988M13.1004 11.4749L16.3304 14.7299M10.6004 45.7499L13.8304 42.4999M11.6704 29.7599H7.08789" stroke="#1FAD90" stroke-width="1.5" stroke-linecap="round" stroke-linejoin="round"/>
</svg>
