<svg width="46" height="48" viewBox="0 0 46 48" fill="none" xmlns="http://www.w3.org/2000/svg">
<path d="M16.6093 30.5019L16.6862 30.5388L16.8233 30.6039C16.9982 30.686 17.1747 30.7672 17.3528 30.8453L17.4647 30.8944C17.6691 30.9827 17.8747 31.0667 18.0827 31.1476L18.2333 31.2057C18.4253 31.2795 18.6206 31.3509 18.8162 31.4188L18.8895 31.4435C19.1042 31.5173 19.321 31.586 19.5397 31.6531L19.6971 31.6991C19.9194 31.7654 20.1389 31.8443 20.3684 31.8863C34.9324 34.5024 39.1625 23.2638 39.1625 23.2638C35.6094 27.8241 29.3027 29.0272 23.3271 27.6879C23.1008 27.6377 22.8809 27.5678 22.6602 27.5034L22.494 27.454C22.2785 27.3888 22.0641 27.3201 21.8518 27.2483L21.7637 27.2169C21.5733 27.1509 21.3848 27.0811 21.1976 27.01L21.039 26.9488C20.8334 26.8691 20.6294 26.7855 20.4278 26.6984L20.3055 26.645C20.1322 26.5677 19.9605 26.4896 19.7899 26.4087L19.6405 26.338C19.5066 26.2737 19.374 26.205 19.2417 26.1379L18.9756 26.0005C18.8142 25.9153 18.6556 25.827 18.4978 25.7363L18.3365 25.6476C18.1265 25.5255 17.9189 25.3995 17.7137 25.2716L17.546 25.1617C17.397 25.0671 17.2488 24.9709 17.103 24.8716L16.9603 24.7727C16.8193 24.6745 16.6798 24.5752 16.5416 24.4744L16.3559 24.3358C16.2292 24.2404 16.1029 24.1443 15.9782 24.0453L15.8097 23.9119C15.6511 23.7831 15.4941 23.654 15.3387 23.5213L15.2873 23.4785C15.1188 23.3341 14.9543 23.1853 14.7917 23.0362L14.6522 22.9039C14.5315 22.7912 14.4132 22.6774 14.2965 22.5608L14.157 22.4234C14.0088 22.2739 13.8634 22.1224 13.7207 21.9689L13.6992 21.9461C13.5482 21.7836 13.4008 21.6176 13.2566 21.45L13.1406 21.3142C13.0331 21.1866 12.9263 21.0571 12.8223 20.9264L12.7055 20.7835C12.58 20.6234 12.4577 20.4636 12.3378 20.3011C9.02052 15.8429 7.82843 9.69405 10.4799 4.64429L8.12964 7.58112C5.11795 11.8451 5.49327 17.3929 7.79337 21.9242L7.96191 22.2464L8.06988 22.4505L8.13681 22.5679L8.25674 22.7795C8.32806 22.9035 8.40097 23.0267 8.47587 23.15L8.60138 23.3537C8.68425 23.4856 8.76911 23.6159 8.85637 23.7462L8.96474 23.9119C9.08467 24.0877 9.20738 24.2636 9.33368 24.4363L9.34444 24.45L9.40659 24.5328C9.51616 24.6816 9.62891 24.8284 9.74286 24.9736L9.86956 25.1322C9.97116 25.2582 10.0751 25.3838 10.1803 25.5087L10.2991 25.648C10.4405 25.8125 10.5847 25.9757 10.7322 26.1355L10.7409 26.1445L10.7576 26.1626C10.9011 26.3172 11.0485 26.468 11.1975 26.6195L11.3386 26.7596C11.4541 26.8742 11.5712 26.9869 11.69 27.0991L11.8338 27.2338C11.992 27.3806 12.1517 27.5246 12.3151 27.6659L12.3231 27.6718L12.4067 27.7425C12.5506 27.8649 12.6972 27.987 12.8446 28.1067L13.0259 28.2488C13.1462 28.3438 13.2681 28.4376 13.3908 28.5299L13.5857 28.6759C13.7211 28.774 13.8574 28.8706 13.9948 28.9652L14.1443 29.0696L14.1853 29.0982C14.316 29.1869 14.4494 29.2717 14.5829 29.3569L14.755 29.47C14.9594 29.5975 15.1674 29.7235 15.3774 29.8452L15.5495 29.941C15.7041 30.0285 15.8591 30.1145 16.0165 30.1985L16.2746 30.3304L16.6093 30.5019ZM18.0807 16.0591C18.407 16.52 18.7684 17.0679 19.2015 17.4385C19.3584 17.6088 19.5226 17.7744 19.6899 17.9381L19.819 18.063C19.982 18.2184 20.1473 18.3711 20.3178 18.5198L20.3386 18.5371L20.3433 18.5422C20.5326 18.7055 20.7278 18.8625 20.9262 19.0172L21.0589 19.1192C21.2581 19.2696 21.4609 19.4171 21.6689 19.5581L21.6868 19.571L21.9649 19.7516L22.0972 19.8379C22.2458 19.9313 22.396 20.0232 22.5494 20.1103L22.6132 20.1468C22.745 20.2218 22.8789 20.2956 23.0128 20.367L23.1546 20.4404L23.4343 20.5829L23.4765 20.6018C23.6686 20.6948 23.8622 20.7843 24.0598 20.8695L24.1885 20.9217C24.3463 20.9876 24.5061 21.0524 24.6662 21.1128L24.871 21.1866C25.0169 21.24 25.1627 21.2887 25.3101 21.337L25.5089 21.3998C25.7185 21.4637 25.9253 21.5446 26.1436 21.5803C37.3879 23.4161 39.9841 14.8863 39.9841 14.8863C37.6437 18.2066 33.112 19.7904 28.276 18.554C28.0612 18.4983 27.8493 18.4382 27.6393 18.3726L27.4476 18.3118C27.2982 18.2643 27.1496 18.2137 27.0022 18.1607L26.8014 18.0869C26.64 18.0257 26.4799 17.9625 26.3217 17.8965L26.1926 17.8424C25.9942 17.7572 25.7986 17.6677 25.6061 17.5735L25.3117 17.4259L25.142 17.3399C25.0169 17.2732 24.8925 17.2033 24.7698 17.1331L24.681 17.0832C24.5284 16.9957 24.3786 16.9054 24.23 16.8128L24.0941 16.7229L23.8025 16.5329C23.5949 16.392 23.3933 16.2448 23.1949 16.0953L23.0582 15.9889C20.9414 14.343 19.2636 12.0923 18.4656 9.54057C17.6297 6.89499 17.8098 3.92441 19.258 1.51395L17.4787 3.98917C15.3009 7.07634 15.4192 11.21 17.1181 14.4753C17.4026 15.0221 17.7225 15.5536 18.0807 16.0591ZM29.9326 12.2395L30.2119 12.3349L30.335 12.3734C30.4677 12.4142 30.5988 12.4621 30.7354 12.4872C36.9441 13.6691 38.6286 9.34824 39.0768 8.71236C37.6015 10.8049 35.1225 11.3069 32.0805 10.5796C31.8403 10.5223 31.5761 10.4371 31.3442 10.3558C31.0474 10.2514 30.755 10.1329 30.4705 9.99864C29.9302 9.74272 29.4155 9.43302 28.9381 9.0774C26.2161 7.04219 24.5252 3.16135 26.3014 0L25.3404 1.30473C24.0567 3.16645 23.9304 5.47839 24.8212 7.53362C25.7607 9.71603 27.6859 11.4274 29.9326 12.2395ZM23.9395 37.2827H22.2558C22.1625 37.2827 22.0697 37.3564 22.0498 37.4463L21.4522 40.1704L20.8545 42.8945C20.835 42.9844 20.7422 43.0582 20.6489 43.0582H19.4572C18.2783 43.0582 18.4146 42.2547 18.656 41.1541L18.6632 41.1207L18.6895 40.9818L18.6943 40.9559L18.748 40.6732L18.8058 40.3706L18.8672 40.0625L19.1389 38.7546L19.411 37.4467C19.4298 37.3564 19.3684 37.2823 19.2752 37.2823H17.5472C17.454 37.2823 17.3615 37.3561 17.3424 37.4463L16.9707 39.1828L16.5993 40.9197L16.5985 40.9221L16.5643 41.0838C16.1364 43.0083 16.2495 44.8441 18.5755 44.9018L18.6433 44.903H22.294C22.3873 44.903 22.4801 44.8292 22.4996 44.7393L23.2869 41.0932L24.0742 37.4467C24.0937 37.3564 24.0331 37.283 23.9395 37.2827ZM5.90843 37.2634H4.05974C3.96611 37.2634 3.87288 37.3372 3.85216 37.4267L3.67685 38.189L3.50155 38.9513C3.48123 39.0411 3.54059 39.1145 3.63422 39.1145H5.49725C5.59088 39.1145 5.68372 39.0407 5.70364 38.9509L5.87297 38.189L6.0423 37.4271C6.06182 37.3372 6.00206 37.2634 5.90843 37.2634ZM5.37215 39.6358H3.50872C3.41549 39.6358 3.32186 39.7096 3.30114 39.7991L3.03938 40.9413L2.77801 42.0832L2.7051 42.4105L2.45369 43.5763L2.20268 44.7425C2.18316 44.8324 2.14292 44.9776 2.11304 45.0647C2.11304 45.0647 1.76482 46.0853 1.17953 46.0735L1.10622 46.0719L0.599823 46.0629C0.506592 46.0617 0.412564 46.1336 0.39065 46.2227L0.197415 47.023L0.00457721 47.823C-0.0173361 47.9125 0.0416308 47.9863 0.134464 47.9878C0.466351 47.9918 1.20981 48 1.65963 48C3.12145 48 3.8924 47.202 4.38605 44.9058L4.96416 42.2704L5.50642 39.7987C5.52594 39.7096 5.46538 39.6358 5.37215 39.6358ZM39.6833 39.018L39.606 38.7036L39.5299 38.3817L39.4912 38.2192C39.3398 37.6395 38.8956 37.3054 37.9306 37.3054L36.4285 37.3039L35.0452 37.3019H33.4885C33.3953 37.3019 33.3029 37.3757 33.2834 37.4656L33.2144 37.7859L33.1332 38.1643L33.1104 38.2706L32.4096 41.505L31.7442 44.5753C31.7243 44.6656 31.718 44.7762 31.7291 44.821C31.7403 44.8661 31.92 44.903 32.0132 44.903H33.4172C33.5109 44.903 33.6292 44.8865 33.6802 44.8661C33.7312 44.8457 33.8065 44.6648 33.8252 44.5749L34.0746 43.3585L34.3244 42.1417L34.3248 42.1397L34.3583 41.9776L34.6611 40.5802L34.9285 39.3461C34.9484 39.2562 35.0404 39.1828 35.1336 39.1824L39.5518 39.1805C39.6454 39.1813 39.7044 39.1079 39.6833 39.018ZM45.3708 36.1761L45.0305 36.1773H43.6165C43.5229 36.1773 43.4029 36.2397 43.3507 36.3159L40.2235 40.8291C40.1709 40.9052 40.1108 40.8942 40.09 40.8047L39.8598 39.8105C39.839 39.7206 39.7454 39.6472 39.6518 39.6472H37.6417C37.5481 39.6472 37.4927 39.7194 37.5182 39.8077L38.419 42.9169C38.4445 43.0056 38.4465 43.1508 38.4234 43.2403L38.031 44.7448C38.0075 44.8343 38.0649 44.907 38.1585 44.907H40.1454C40.2387 44.907 40.3343 44.8339 40.3574 44.7448L40.7502 43.2403C40.7733 43.1504 40.8383 43.0178 40.8949 42.944L45.9716 36.3061C46.0282 36.2323 45.9975 36.1722 45.9042 36.173L45.3708 36.1761ZM29.3995 40.0695V40.068C29.388 40.1677 29.2943 40.2411 29.2007 40.2411H26.652C26.5635 40.2411 26.5189 40.1822 26.5321 40.1092L26.5345 40.1033L26.5329 40.1041L26.5341 40.0958L26.5456 40.0531C26.789 39.4156 27.2847 38.9972 28.2166 38.9972C29.2661 38.9968 29.4708 39.5016 29.3995 40.0695ZM28.6517 37.1712C25.3802 37.1712 24.6049 39.1275 24.1698 41.1023C23.7351 43.1151 23.7722 44.9964 27.158 44.9964H27.5684L27.6704 44.9961H27.6943L28.1007 44.9949H28.1078C29.0019 44.9913 29.8987 44.9847 30.2617 44.9819C30.3545 44.9804 30.4454 44.9069 30.4645 44.8171L30.6016 44.1572L30.6283 44.0289L30.7916 43.2415C30.8103 43.1516 30.7494 43.0774 30.6558 43.0774H27.6122C26.4014 43.0774 26.042 42.7607 26.1747 41.8288H31.0398L31.0394 41.8292L31.0426 41.8288C31.1199 41.8276 31.1916 41.775 31.2199 41.7052L31.2315 41.6636L31.2311 41.664C31.9534 38.9795 31.7462 37.1716 28.6517 37.1712ZM13.1888 40.0593L13.1426 40.2199L12.7753 41.503L12.4079 42.7854C12.3828 42.8745 12.2852 42.9467 12.1916 42.9467H10.2473C8.7723 42.9467 8.41292 41.81 8.7723 40.1339C9.13128 38.4194 9.8353 37.3537 11.2872 37.2458C13.2713 37.0982 13.6681 38.4728 13.1888 40.0593ZM14.5228 42.8482C14.5228 42.8482 15.4395 40.6548 15.6475 39.3885C15.9316 37.6932 15.0698 35.2337 11.7414 35.2337C8.43205 35.2337 6.99453 37.5814 6.4463 40.1339C5.89807 42.7049 6.61643 44.9592 9.90701 44.9407L12.5031 44.9313L14.9292 44.9227C15.0224 44.9219 15.118 44.8489 15.1419 44.7601L15.5646 43.172C15.5881 43.0825 15.5312 43.0095 15.4375 43.0087L15.0323 43.0064L14.6271 43.004C14.5479 43.0036 14.5024 42.9526 14.512 42.8855L14.5228 42.8482ZM30.906 41.3798C30.906 41.4406 30.8562 41.4901 30.7944 41.4901C30.733 41.4901 30.6828 41.4406 30.6828 41.3798C30.6828 41.3193 30.7327 41.2703 30.7944 41.2703C30.8562 41.2703 30.906 41.3193 30.906 41.3798Z" fill="#9CA5AE"/>
</svg>
