<svg width="43" height="43" viewBox="0 0 43 43" fill="none" xmlns="http://www.w3.org/2000/svg">
<g clip-path="url(#clip0_113_515)">
<path d="M42.3631 9.72878C42.3765 9.78522 42.3846 9.84837 42.3846 9.90347V19.135C42.3846 19.3729 42.2583 19.5973 42.0486 19.7155L34.3006 24.1808V33.02C34.3006 33.2578 34.1743 33.4822 33.9646 33.6005L17.7913 42.9087C17.7563 42.9302 17.7147 42.9436 17.6717 42.957C17.6582 42.9637 17.6434 42.9705 17.63 42.9785C17.5185 43.0067 17.3989 43.0067 17.2874 42.9785C17.2659 42.9718 17.2524 42.9651 17.239 42.957C17.1973 42.9436 17.1624 42.9288 17.1274 42.9087L0.96079 33.6005C0.751165 33.4809 0.618134 33.2578 0.618134 33.02V5.32666C0.618134 5.27022 0.631571 5.20706 0.646352 5.15197C0.653071 5.13047 0.65979 5.11703 0.667852 5.09553C0.68129 5.06059 0.696071 5.02566 0.709509 4.99072C0.716227 4.96922 0.737727 4.95578 0.751165 4.93428C0.772665 4.90606 0.792821 4.87784 0.814321 4.84962C0.835821 4.83619 0.855977 4.82141 0.877477 4.80125C0.905696 4.77975 0.925852 4.75959 0.954071 4.74481L9.03807 0.0900615C9.2477 -0.0295322 9.50704 -0.0295322 9.70995 0.0900615L17.8007 4.74481C17.8289 4.75825 17.849 4.77975 17.8705 4.80125C17.892 4.81469 17.9189 4.83619 17.9404 4.84962C17.9619 4.87784 17.9754 4.898 17.9969 4.93428C18.0103 4.94772 18.0318 4.96922 18.0452 4.99072C18.0587 5.02566 18.0734 5.06059 18.0869 5.09553C18.0936 5.11703 18.1084 5.13047 18.1084 5.15197C18.1299 5.20841 18.1366 5.2635 18.1366 5.32666V22.6207L24.8688 18.744V9.90481C24.8688 9.84166 24.8822 9.78522 24.897 9.73012C24.9037 9.70862 24.9104 9.68847 24.9185 9.67369C24.9319 9.63875 24.9467 9.60381 24.9602 9.56887C24.9736 9.54066 24.9951 9.52722 25.0085 9.50572C25.03 9.4775 25.0435 9.44928 25.065 9.42912C25.0865 9.40897 25.1134 9.39419 25.1349 9.38075C25.1564 9.35925 25.1765 9.33909 25.2047 9.32431L33.2954 4.66956C33.4984 4.54325 33.7577 4.54325 33.9673 4.66956L42.0513 9.32431C42.0795 9.33775 42.0997 9.35925 42.1279 9.38075C42.1494 9.39419 42.1696 9.40897 42.1911 9.42912C42.2126 9.44928 42.2327 9.4775 42.2542 9.50572C42.2677 9.52722 42.2892 9.54066 42.2959 9.56887C42.3174 9.60381 42.3241 9.63875 42.3375 9.67369C42.351 9.68712 42.359 9.70862 42.3658 9.73012L42.3631 9.72878ZM41.0328 18.7427V11.0725L38.2055 12.6958L34.3006 14.9492V22.6194L41.0328 18.7427ZM32.9568 32.6276V24.9494L29.107 27.1397L18.1326 33.411V41.1591L32.9568 32.6276ZM1.9592 6.49437V32.6276L16.7821 41.1591V33.411L9.03404 29.0223C9.00582 29.0089 8.98566 28.9874 8.96416 28.9659C8.94266 28.9525 8.91579 28.9377 8.90101 28.9175H8.89429C8.87279 28.896 8.85935 28.8692 8.83785 28.8477C8.82441 28.8262 8.80291 28.806 8.78948 28.7778C8.77604 28.7563 8.76126 28.7213 8.75454 28.6931C8.7411 28.6649 8.72632 28.6447 8.7196 28.6165C8.71288 28.5883 8.70616 28.5534 8.70616 28.5184C8.69945 28.4902 8.69273 28.4701 8.69273 28.4418V10.3711L4.78779 8.11762L1.9592 6.49437ZM9.37132 1.44859L2.63913 5.32531L9.37132 9.20203L16.1035 5.32531L9.37132 1.44859ZM12.8772 25.6509L16.7821 23.3974V6.49572L13.9549 8.11897L10.0432 10.3724V27.2741L12.8772 25.6509ZM33.6287 6.02541L26.8884 9.90212L33.6287 13.7788L40.3609 9.90212L33.6287 6.02541ZM32.9568 14.9492L26.2166 11.0725V18.7427L30.1215 20.9961L32.9555 22.6194L32.9568 14.9492ZM17.4553 32.2433L32.2715 23.7884L25.546 19.9117L10.7366 28.4365L17.4553 32.2433Z" fill="#FF2D20"/>
</g>
<defs>
<clipPath id="clip0_113_515">
<rect width="43" height="43" fill="white"/>
</clipPath>
</defs>
</svg>
