<svg width="139" height="131" viewBox="0 0 139 131" fill="none" xmlns="http://www.w3.org/2000/svg">
<g clip-path="url(#clip0_60_435)">
<path d="M1.42788 129.406L0 124.113H0.639571L1.73031 128.425H1.78485L2.89542 124.113H3.6044L4.71497 128.425H4.76951L5.85529 124.113H6.49982L5.07194 129.406H4.42246L3.27222 125.19H3.2276L2.07736 129.406H1.42788Z" fill="white"/>
<path d="M9.5293 129.406V124.113H12.6776V124.682H10.159V126.473H12.514V127.041H10.159V128.837H12.7172V129.406H9.5293Z" fill="white"/>
<path d="M16.0635 129.406V124.113H17.888C18.1979 124.103 18.5058 124.168 18.7854 124.305C19.0054 124.416 19.1881 124.591 19.3109 124.808C19.4267 125.026 19.4864 125.27 19.4844 125.517C19.4912 125.712 19.4503 125.906 19.3654 126.081C19.2918 126.221 19.1865 126.342 19.0581 126.433C18.9291 126.517 18.7888 126.581 18.6416 126.624V126.674C18.819 126.685 18.9902 126.744 19.1374 126.845C19.305 126.957 19.4429 127.109 19.539 127.288C19.6511 127.508 19.7097 127.752 19.7097 128C19.7097 128.248 19.6511 128.492 19.539 128.712C19.4085 128.935 19.2126 129.111 18.9787 129.215C18.6657 129.35 18.3271 129.414 17.9871 129.401L16.0635 129.406ZM16.6931 126.443H17.8483C18.02 126.442 18.1893 126.402 18.3441 126.327C18.4938 126.257 18.6209 126.145 18.711 126.005C18.8165 125.841 18.8642 125.645 18.8462 125.449C18.8282 125.254 18.7456 125.07 18.6118 124.928C18.4004 124.749 18.1282 124.66 17.8533 124.682H16.6931V126.443ZM16.6931 128.838H17.9475C18.2641 128.872 18.582 128.786 18.8399 128.596C18.9228 128.522 18.989 128.43 19.0343 128.328C19.0797 128.226 19.1029 128.115 19.1027 128.002C19.1051 127.825 19.0587 127.651 18.9688 127.499C18.8751 127.344 18.7414 127.217 18.5821 127.132C18.3998 127.037 18.1969 126.991 17.9921 126.996H16.6931V128.838Z" fill="white"/>
<path d="M30.209 129.406H28.5977V124.113H30.2833C30.7348 124.1 31.1817 124.209 31.5774 124.43C31.9394 124.64 32.2286 124.958 32.4053 125.341C32.6082 125.781 32.7067 126.264 32.6929 126.75C32.7066 127.24 32.6082 127.728 32.4053 128.174C32.2226 128.56 31.9265 128.88 31.5575 129.089C31.1428 129.312 30.678 129.421 30.209 129.406ZM29.2174 128.838H30.1544C30.5273 128.854 30.8974 128.767 31.2253 128.586C31.5061 128.42 31.7282 128.168 31.86 127.867C32.1341 127.153 32.1341 126.361 31.86 125.648C31.7318 125.35 31.5151 125.1 31.2402 124.933C30.9283 124.758 30.5754 124.671 30.2189 124.682H29.2521L29.2174 128.838Z" fill="white"/>
<path d="M35.999 129.406V124.113H39.1671V124.682H36.6287V126.473H38.9837V127.041H36.6287V128.837H39.1671V129.406H35.999Z" fill="white"/>
<path d="M47.0101 129.406H46.3457L48.2595 124.113H48.9139L50.8277 129.406H50.1633L48.5867 124.953L47.0101 129.406ZM47.253 127.338H49.9204V127.907H47.253V127.338Z" fill="white"/>
<path d="M53.8877 129.406V124.113H54.5372V128.837H56.9616V129.406H53.8877Z" fill="white"/>
<path d="M59.1885 124.682V124.113H63.1003V124.682H61.479V129.406H60.8444V124.682H59.1885Z" fill="white"/>
<path d="M65.9397 129.406H65.2803L67.194 124.113H67.8485L69.7622 129.406H69.0979L67.5411 124.953H67.5014L65.9397 129.406ZM66.1876 127.338H68.8549V127.907H66.1876V127.338Z" fill="white"/>
<path d="M77.699 124.113V129.406H77.0693V124.113H77.699Z" fill="white"/>
<path d="M85.3458 124.113V129.406H84.7311L81.8902 125.275H81.8406V129.431H81.2109V124.113H81.8059L84.6567 128.279H84.7063V124.113H85.3458Z" fill="white"/>
<path d="M91.7221 125.437C91.7085 125.313 91.6681 125.195 91.6038 125.09C91.5395 124.984 91.4529 124.895 91.3503 124.828C91.1096 124.676 90.83 124.601 90.5471 124.611C90.3398 124.608 90.1341 124.647 89.9422 124.727C89.7827 124.792 89.6438 124.9 89.5406 125.039C89.4455 125.17 89.3951 125.329 89.3969 125.492C89.394 125.62 89.4285 125.746 89.496 125.854C89.5659 125.955 89.6553 126.041 89.7588 126.106C89.8617 126.171 89.9715 126.225 90.086 126.267C90.205 126.307 90.3091 126.342 90.4083 126.367L90.9338 126.513C91.0887 126.554 91.241 126.605 91.3899 126.664C91.5646 126.729 91.7311 126.816 91.8857 126.921C92.0412 127.032 92.1713 127.176 92.2675 127.343C92.3723 127.535 92.4237 127.753 92.4162 127.972C92.4188 128.246 92.3431 128.516 92.1981 128.747C92.0385 128.988 91.815 129.178 91.5535 129.295C90.9174 129.556 90.2066 129.556 89.5704 129.295C89.3155 129.188 89.0931 129.015 88.9259 128.792C88.7694 128.567 88.6783 128.302 88.6631 128.028H89.3175C89.3239 128.214 89.3941 128.391 89.5158 128.531C89.6343 128.666 89.7868 128.767 89.9571 128.822C90.3576 128.958 90.7919 128.949 91.1867 128.797C91.3659 128.729 91.5235 128.612 91.6428 128.46C91.756 128.318 91.8158 128.14 91.8114 127.957C91.8171 127.8 91.766 127.646 91.6676 127.524C91.5593 127.41 91.4294 127.32 91.2858 127.258C91.125 127.186 90.9593 127.125 90.79 127.077L90.1505 126.89C89.7946 126.8 89.4639 126.628 89.1837 126.387C89.0659 126.278 88.9729 126.144 88.9113 125.995C88.8497 125.845 88.8208 125.684 88.8267 125.522C88.821 125.243 88.9044 124.969 89.0647 124.742C89.2303 124.52 89.451 124.346 89.7042 124.239C89.9892 124.118 90.2951 124.056 90.6041 124.056C90.9131 124.056 91.219 124.118 91.504 124.239C91.7518 124.349 91.9672 124.522 92.1287 124.742C92.2805 124.949 92.3654 125.199 92.3716 125.457L91.7221 125.437Z" fill="white"/>
<path d="M95.6865 129.406V124.113H97.4466C97.7907 124.102 98.1321 124.18 98.4382 124.34C98.6873 124.477 98.8896 124.687 99.0182 124.944C99.1455 125.206 99.2101 125.496 99.2066 125.789C99.2095 126.083 99.1451 126.374 99.0182 126.639C98.8915 126.898 98.6889 127.111 98.4382 127.248C98.1326 127.409 97.7909 127.487 97.4466 127.474H96.1823V126.906H97.4267C97.6601 126.916 97.8921 126.866 98.101 126.76C98.2617 126.668 98.3913 126.53 98.4729 126.362C98.55 126.181 98.5889 125.986 98.5869 125.789C98.5895 125.593 98.5506 125.399 98.4729 125.22C98.3926 125.053 98.2625 124.916 98.101 124.828C97.8883 124.723 97.6533 124.673 97.4168 124.682H96.3063V129.406H95.6865Z" fill="white"/>
<path d="M103.124 124.113V129.406H102.494V124.113H103.124Z" fill="white"/>
<path d="M106.595 129.406V124.113H108.355C108.697 124.103 109.037 124.175 109.346 124.325C109.593 124.453 109.795 124.655 109.926 124.903C110.054 125.162 110.119 125.449 110.115 125.738C110.12 126.027 110.055 126.311 109.926 126.569C109.793 126.812 109.591 127.01 109.346 127.137C109.036 127.283 108.696 127.352 108.355 127.338H106.932V126.785H108.335C108.566 126.794 108.796 126.753 109.009 126.664C109.167 126.59 109.297 126.466 109.381 126.312C109.462 126.141 109.501 125.953 109.495 125.764C109.501 125.571 109.462 125.38 109.381 125.205C109.298 125.045 109.165 124.916 109.004 124.838C108.791 124.742 108.558 124.698 108.325 124.707H107.239V129.431L106.595 129.406ZM109.049 127.031L110.333 129.406H109.599L108.335 127.031H109.049Z" fill="white"/>
<path d="M113.65 129.406H112.99L114.904 124.113H115.558L117.472 129.406H116.808L115.251 124.953H115.211L113.65 129.406ZM113.898 127.338H116.565V127.907H113.898V127.338Z" fill="white"/>
<path d="M124.483 125.779H123.853C123.822 125.6 123.756 125.429 123.66 125.276C123.568 125.138 123.454 125.017 123.323 124.919C123.189 124.824 123.042 124.751 122.886 124.702C122.725 124.656 122.558 124.632 122.391 124.632C122.088 124.628 121.79 124.712 121.533 124.873C121.268 125.052 121.057 125.301 120.923 125.593C120.764 125.957 120.688 126.352 120.7 126.75C120.688 127.149 120.765 127.546 120.923 127.912C121.056 128.204 121.267 128.452 121.533 128.627C121.79 128.789 122.087 128.875 122.391 128.873C122.559 128.873 122.726 128.848 122.886 128.798C123.043 128.751 123.19 128.678 123.323 128.581C123.454 128.485 123.568 128.365 123.66 128.229C123.754 128.075 123.82 127.904 123.853 127.726H124.483C124.441 127.981 124.354 128.227 124.225 128.45C124.102 128.659 123.943 128.844 123.754 128.994C123.567 129.144 123.355 129.259 123.129 129.336C122.889 129.413 122.638 129.452 122.386 129.452C121.967 129.459 121.556 129.344 121.201 129.12C120.846 128.89 120.562 128.564 120.383 128.179C120.175 127.726 120.073 127.23 120.085 126.73C120.072 126.232 120.174 125.737 120.383 125.286C120.562 124.9 120.846 124.574 121.201 124.345C121.556 124.121 121.967 124.006 122.386 124.013C122.638 124.012 122.889 124.051 123.129 124.129C123.356 124.203 123.568 124.319 123.754 124.471C123.944 124.618 124.103 124.801 124.225 125.009C124.359 125.247 124.446 125.508 124.483 125.779ZM122.123 129.437H122.619L122.579 129.648C122.714 129.669 122.84 129.726 122.946 129.814C123.004 129.871 123.048 129.94 123.077 130.017C123.105 130.093 123.116 130.175 123.109 130.257C123.111 130.363 123.087 130.468 123.04 130.563C122.992 130.658 122.923 130.739 122.837 130.8C122.601 130.957 122.32 131.031 122.039 131.011V130.609C122.174 130.615 122.308 130.587 122.43 130.528C122.479 130.508 122.521 130.473 122.549 130.428C122.578 130.383 122.592 130.33 122.589 130.277C122.594 130.228 122.585 130.179 122.562 130.136C122.538 130.092 122.503 130.057 122.46 130.035C122.326 129.979 122.183 129.949 122.039 129.945L122.123 129.437Z" fill="white"/>
<path d="M127.963 129.406H127.299L129.213 124.113H129.867L131.781 129.406H131.121L129.56 124.953H129.52L127.963 129.406ZM128.206 127.338H130.888V127.906H128.221L128.206 127.338ZM128.756 123.59L128.285 123.564C128.276 123.329 128.356 123.098 128.509 122.92C128.577 122.839 128.662 122.774 128.758 122.731C128.854 122.687 128.959 122.666 129.064 122.669C129.151 122.667 129.237 122.684 129.317 122.719C129.393 122.75 129.466 122.788 129.535 122.835C129.601 122.878 129.671 122.915 129.743 122.946C129.821 122.981 129.906 122.998 129.991 122.996C130.037 122.997 130.083 122.987 130.125 122.968C130.167 122.949 130.204 122.921 130.234 122.885C130.301 122.808 130.337 122.707 130.333 122.604L130.794 122.649C130.805 122.883 130.725 123.113 130.571 123.288C130.501 123.364 130.415 123.424 130.32 123.465C130.226 123.506 130.124 123.526 130.021 123.524C129.921 123.528 129.821 123.511 129.728 123.474C129.656 123.444 129.587 123.406 129.525 123.358L129.337 123.242C129.26 123.208 129.177 123.191 129.094 123.192C129.047 123.192 129.001 123.202 128.959 123.222C128.917 123.242 128.88 123.271 128.851 123.308C128.787 123.387 128.754 123.487 128.756 123.59Z" fill="white"/>
<path d="M138.999 126.785C139.011 127.285 138.909 127.781 138.701 128.234C138.521 128.619 138.238 128.945 137.883 129.175C137.524 129.392 137.114 129.506 136.696 129.506C136.278 129.506 135.867 129.392 135.508 129.175C135.154 128.945 134.87 128.619 134.69 128.234C134.482 127.781 134.38 127.285 134.393 126.785C134.38 126.287 134.482 125.792 134.69 125.341C134.87 124.955 135.154 124.629 135.508 124.4C135.867 124.183 136.278 124.068 136.696 124.068C137.114 124.068 137.524 124.183 137.883 124.4C138.238 124.629 138.521 124.955 138.701 125.341C138.91 125.792 139.012 126.287 138.999 126.785ZM138.384 126.785C138.396 126.387 138.32 125.991 138.161 125.628C138.03 125.333 137.818 125.084 137.551 124.908C137.294 124.746 136.996 124.662 136.693 124.667C136.391 124.664 136.093 124.747 135.835 124.908C135.571 125.085 135.361 125.335 135.231 125.628C135.067 125.99 134.989 126.386 135.003 126.785C134.99 127.185 135.068 127.582 135.231 127.947C135.36 128.239 135.57 128.487 135.835 128.661C136.093 128.824 136.39 128.909 136.693 128.908C136.996 128.911 137.294 128.825 137.551 128.661C137.819 128.489 138.031 128.241 138.161 127.947C138.319 127.581 138.395 127.184 138.384 126.785Z" fill="white"/>
<path d="M70.9583 80.4326L60.983 110.493H57.681L49.0046 84.8348L40.2886 110.493H37.0214L27.0361 80.4326H30.2439L38.7963 106.282L47.6363 80.4326H50.5713L59.2923 106.413L67.9637 80.4326H70.9583Z" fill="white"/>
<path d="M101.427 80.4326V110.493H98.3337V96.6227H79.8209V110.493H76.6875V80.4326H79.8209V93.8305H98.3536V80.4326H101.427Z" fill="white"/>
<path d="M111.056 80.4326H114.189V110.493H111.056V80.4326Z" fill="white"/>
<path d="M59.277 23.8075C58.3825 23.8039 57.5256 23.4423 56.8922 22.8013L49.495 15.4961C48.8735 14.8485 48.5259 13.9801 48.5264 13.0761C48.5268 12.1721 48.8752 11.3041 49.4973 10.657C50.1194 10.01 50.966 9.63513 51.8566 9.61242C52.7471 9.58972 53.6112 9.92094 54.2645 10.5355L61.6617 17.8608C62.1476 18.3421 62.481 18.9594 62.6195 19.6339C62.7581 20.3084 62.6954 21.0095 62.4394 21.6477C62.1835 22.2859 61.746 22.8322 61.1827 23.2169C60.6194 23.6016 59.956 23.8072 59.277 23.8075Z" fill="white"/>
<path d="M48.3644 67.2108C47.6955 67.1901 47.0474 66.9704 46.5004 66.5792C45.9535 66.1879 45.5318 65.6422 45.2878 65.0098C45.0439 64.3775 44.9883 63.6863 45.128 63.0222C45.2678 62.3581 45.5967 61.7502 46.0739 61.2741L72.6582 34.8256C72.9782 34.5071 73.3569 34.2558 73.7726 34.0858C74.1884 33.9159 74.633 33.8307 75.0812 33.8351C75.5294 33.8396 75.9723 33.9335 76.3847 34.1117C76.7971 34.2898 77.1709 34.5487 77.4847 34.8734C77.7986 35.1981 78.0463 35.5824 78.2137 36.0043C78.3812 36.4262 78.4652 36.8774 78.4608 37.3322C78.4564 37.787 78.3638 38.2365 78.1883 38.6549C78.0127 39.0734 77.7576 39.4527 77.4376 39.7712L50.8583 66.2247C50.5297 66.5515 50.1394 66.8073 49.7108 66.9768C49.2822 67.1462 48.8242 67.2259 48.3644 67.2108Z" fill="white"/>
<path d="M55.4993 60.1724C56.3941 60.1728 57.2575 59.8378 57.9237 59.2316L50.8834 66.1997C50.4813 66.6045 49.9877 66.9033 49.4456 67.07L49.3217 67.1053L49.2225 67.1304H49.1085H48.9846L48.816 67.1556C48.702 67.1556 48.583 67.1556 48.4689 67.1556C48.3549 67.1556 48.2458 67.1556 48.1368 67.1556H48.0029H47.9484H47.7996L47.6112 67.1153L47.4526 67.065C47.3423 67.0331 47.2346 66.9927 47.1303 66.9443L46.9865 66.8839C46.7293 66.7585 46.4893 66.5995 46.2726 66.411C46.2352 66.3861 46.2017 66.3556 46.1734 66.3204C46.1304 66.2875 46.0905 66.2504 46.0544 66.2097C45.9749 66.1325 45.9004 66.0502 45.8313 65.9632C45.6928 65.7885 45.5701 65.6016 45.4644 65.4048C45.3189 65.1284 45.2089 64.8341 45.1372 64.5293C45.1372 64.4841 45.1372 64.4388 45.1124 64.3985C45.1097 64.3583 45.1097 64.318 45.1124 64.2778C45.1124 64.2174 45.1124 64.1621 45.1124 64.1017C45.1124 64.0413 45.1124 63.8703 45.1124 63.7495V9.72548C45.1124 9.60474 45.1124 9.48902 45.1124 9.3733C45.1124 9.25759 45.1124 9.25759 45.1124 9.19722C45.1106 9.1502 45.1123 9.10311 45.1174 9.05635C45.1174 9.0161 45.1174 8.97585 45.1422 8.93057C45.2119 8.62427 45.3202 8.32835 45.4644 8.05012C45.5727 7.87235 45.6954 7.70406 45.8313 7.54701C45.8991 7.45891 45.9737 7.37647 46.0544 7.30049C46.0905 7.25982 46.1304 7.22275 46.1734 7.1898C46.2015 7.15301 46.2349 7.12078 46.2726 7.09421C46.4908 6.90916 46.7305 6.75201 46.9865 6.62632L47.1303 6.56595C47.2344 6.51582 47.3422 6.47377 47.4526 6.44017L47.6112 6.39489L47.7996 6.34961H47.9484H48.0029H48.1368C48.2458 6.34961 48.3549 6.34961 48.4689 6.34961C48.583 6.34961 48.702 6.34961 48.816 6.34961H48.9846H49.1085H49.2225L49.3217 6.37477L49.4456 6.40998C49.9884 6.57518 50.4824 6.87421 50.8834 7.28036L57.9237 14.2484C57.4038 13.7742 56.7597 13.463 56.0692 13.3522C55.3787 13.2415 54.6714 13.336 54.0328 13.6244C53.3941 13.9128 52.8514 14.3827 52.4703 14.9774C52.0891 15.572 51.8858 16.2659 51.8849 16.9753V56.5098C51.8849 56.9914 51.9784 57.4683 52.1601 57.9133C52.3417 58.3583 52.6079 58.7626 52.9435 59.1032C53.2792 59.4438 53.6776 59.7139 54.1161 59.8982C54.5546 60.0826 55.0246 60.1774 55.4993 60.1774V60.1724Z" fill="white"/>
<path d="M81.9652 43.4092C82.8596 43.4134 83.7163 43.7749 84.3499 44.4154L91.7224 51.7206C92.0568 52.0351 92.3257 52.4144 92.5134 52.8361C92.7011 53.2577 92.8037 53.7133 92.8151 54.1758C92.8266 54.6383 92.7466 55.0985 92.5801 55.5292C92.4135 55.9599 92.1636 56.3525 91.8452 56.6836C91.5268 57.0148 91.1463 57.2779 90.7261 57.4575C90.3059 57.6371 89.8545 57.7295 89.3985 57.7293C88.9426 57.7291 88.4913 57.6362 88.0713 57.4562C87.6512 57.2762 87.2709 57.0127 86.9528 56.6812L79.5804 49.3559C79.0946 48.8746 78.7611 48.2573 78.6226 47.5828C78.4841 46.9083 78.5468 46.2072 78.8027 45.569C79.0587 44.9309 79.4962 44.3845 80.0595 43.9998C80.6227 43.6151 81.2862 43.4095 81.9652 43.4092Z" fill="white"/>
<path d="M92.8783 0.000292154C93.5478 0.019685 94.197 0.238693 94.7447 0.629998C95.2924 1.0213 95.7144 1.56759 95.9581 2.2007C96.2019 2.83382 96.2566 3.52575 96.1153 4.19019C95.9741 4.85463 95.6432 5.46216 95.1639 5.937L68.5845 32.3906C67.9328 33.0058 67.0702 33.3386 66.1804 33.3181C65.2905 33.2976 64.4437 32.9255 63.8201 32.2809C63.1966 31.6364 62.8456 30.7703 62.8418 29.8671C62.8381 28.9639 63.1819 28.0948 63.8001 27.445L90.3845 1.00651C90.7111 0.675918 91.1007 0.416227 91.5294 0.243243C91.9582 0.0702593 92.4171 -0.0124009 92.8783 0.000292154Z" fill="white"/>
<path d="M96.1843 3.47187V57.4909C96.1843 57.6116 96.1843 57.7273 96.1843 57.8431C96.1843 57.9588 96.1843 57.9588 96.1843 58.0191C96.1867 58.061 96.1867 58.103 96.1843 58.1449C96.1843 58.1801 96.1843 58.2305 96.1545 58.2707C96.089 58.5767 95.9804 58.8715 95.8323 59.1461C95.725 59.3388 95.6023 59.5223 95.4654 59.6945C95.396 59.78 95.3216 59.8605 95.2423 59.941L95.1233 60.0568L95.0241 60.1423C94.8058 60.3286 94.5661 60.4874 94.3102 60.6152L94.1664 60.6806C94.0596 60.7269 93.9504 60.7672 93.8392 60.8014L93.6855 60.8466C93.6211 60.8466 93.5616 60.8466 93.4921 60.8869H93.3484H93.2988C93.2525 60.8894 93.2062 60.8894 93.16 60.8869C93.0494 60.8945 92.9384 60.8945 92.8278 60.8869C92.7122 60.8944 92.5963 60.8944 92.4807 60.8869L92.3072 60.8617C92.2677 60.8666 92.2277 60.8666 92.1882 60.8617H92.0742H91.975L91.8511 60.8265C91.309 60.6598 90.8154 60.361 90.4133 59.9561L83.373 52.988C83.8929 53.4622 84.537 53.7735 85.2275 53.8843C85.918 53.995 86.6253 53.9005 87.2639 53.6121C87.9026 53.3237 88.4453 52.8538 88.8265 52.2591C89.2076 51.6645 89.4109 50.9705 89.4118 50.2612V10.7116C89.4121 10.0018 89.2094 9.30702 88.8283 8.71174C88.4471 8.11646 87.904 7.64622 87.2646 7.35805C86.6253 7.06989 85.9173 6.97619 85.2265 7.08833C84.5357 7.20047 83.8919 7.51363 83.373 7.98981L90.3587 1.00663C90.7582 0.601647 91.2532 0.3072 91.7965 0.151342L91.9205 0.111093H92.0196L92.1337 0.0859375H92.2527H92.4262C92.5402 0.0859375 92.6592 0.0859375 92.7732 0.0859375C92.8873 0.0859375 92.9963 0.0859375 93.1054 0.0859375H93.2443H93.2938H93.4376L93.631 0.131217C93.6831 0.144958 93.7344 0.161757 93.7847 0.181529C93.8973 0.211187 94.0068 0.251617 94.1119 0.302275C94.1565 0.302275 94.211 0.337493 94.2557 0.362648C94.5104 0.490565 94.7499 0.647543 94.9696 0.830542C95.0043 0.865759 95.039 0.890915 95.0688 0.926133L95.1927 1.00663C95.2721 1.08218 95.3466 1.16285 95.4158 1.24812C95.5528 1.42037 95.6755 1.60379 95.7827 1.79651C95.9301 2.07153 96.0386 2.36622 96.105 2.67193L96.1347 2.80274C96.1379 2.8446 96.1379 2.88665 96.1347 2.92851C96.1347 2.98386 96.1347 3.0392 96.1347 3.09957C96.1347 3.15994 96.1843 3.3461 96.1843 3.47187Z" fill="white"/>
</g>
<defs>
<clipPath id="clip0_60_435">
<rect width="139" height="131" fill="white"/>
</clipPath>
</defs>
</svg>
