<svg width="44" height="53" viewBox="0 0 44 53" fill="none" xmlns="http://www.w3.org/2000/svg">
<g clip-path="url(#clip0_171_175)">
<path d="M6.50437 40.282C6.23021 40.282 5.95605 40.5297 5.95605 40.9425V52.5008C5.95605 52.831 6.16167 53.1613 6.50437 53.1613C6.84707 53.1613 7.05269 52.9136 7.05269 52.5008V40.9425C7.05269 40.5297 6.77853 40.282 6.50437 40.282Z" fill="white"/>
<path d="M6.50437 36.1541C6.23021 36.1541 5.95605 36.4017 5.95605 36.8145V38.4657C5.95605 38.796 6.16167 39.1262 6.50437 39.1262C6.84707 39.1262 7.05269 38.8785 7.05269 38.4657V36.8145C7.05269 36.4017 6.77853 36.1541 6.50437 36.1541Z" fill="white"/>
<path d="M41.3239 3.70815C41.3239 3.37791 41.1183 3.04767 40.7756 3.04767H39.8846V2.05696C39.8846 1.72672 39.679 1.39648 39.3363 1.39648C38.9936 1.39648 38.788 1.64416 38.788 2.05696V3.13023H37.897C37.6228 3.13023 37.3486 3.37791 37.3486 3.79071C37.3486 4.2035 37.5543 4.45118 37.897 4.45118H38.788V5.52446C38.788 5.85469 38.9936 6.18493 39.3363 6.18493C39.679 6.18493 39.8846 5.93725 39.8846 5.52446V4.36862H40.7756C41.0498 4.36862 41.3239 4.03839 41.3239 3.70815Z" fill="white"/>
<path d="M3.76355 32.0257H2.94107V30.9525C2.94107 30.6222 2.73545 30.292 2.39275 30.292C2.05005 30.292 1.84443 30.5397 1.84443 30.9525V32.0257H1.02195C0.747792 32.0257 0.473633 32.2734 0.473633 32.6862C0.473633 33.099 0.679253 33.3467 1.02195 33.3467H1.91297V34.42C1.91297 34.7502 2.11859 35.0804 2.46129 35.0804C2.80399 35.0804 3.00961 34.8328 3.00961 34.42V33.3467H3.90063C4.17479 33.3467 4.44895 33.099 4.44895 32.6862C4.44895 32.2734 4.03771 32.0257 3.76355 32.0257Z" fill="white"/>
<path d="M17.4712 5.194H27.0668C27.3409 5.194 27.6151 4.94632 27.6151 4.53352C27.6151 4.12073 27.4095 3.87305 27.0668 3.87305H17.4712C17.197 3.87305 16.9229 4.12073 16.9229 4.53352C16.9229 4.94632 17.197 5.194 17.4712 5.194Z" fill="white"/>
<path d="M22.9543 45.2354C21.9262 45.2354 21.0352 46.2261 21.0352 47.547C21.0352 48.868 21.8576 49.8587 22.9543 49.8587C24.0509 49.8587 24.8734 48.868 24.8734 47.547C24.8734 46.2261 23.9824 45.2354 22.9543 45.2354ZM22.9543 48.5377C22.4745 48.5377 22.0633 48.0424 22.0633 47.4645C22.0633 46.8865 22.4745 46.3912 22.9543 46.3912C23.4341 46.3912 23.8453 46.8865 23.8453 47.4645C23.8453 48.0424 23.4341 48.5377 22.9543 48.5377Z" fill="white"/>
<path d="M38.6503 12.1291C38.3076 11.8814 37.8278 11.8814 37.4851 12.1291L26.3131 19.642H19.5962C19.322 19.642 19.0479 19.8897 19.0479 20.3025V28.5584C19.0479 28.8887 19.2535 29.2189 19.5962 29.2189H26.3131L37.4851 36.7318C37.6907 36.8144 37.8963 36.8969 38.1019 36.8969C38.3076 36.8969 38.5132 36.8144 38.7188 36.7318C39.0615 36.4841 39.3357 35.9888 39.3357 35.4934V13.3675C39.2671 12.8722 38.993 12.3768 38.6503 12.1291ZM20.076 20.8804H25.9018V27.898H20.076V20.8804ZM38.239 35.3283C38.239 35.4109 38.1705 35.4934 38.1705 35.4934C38.1705 35.4934 38.1019 35.576 38.0334 35.4934L26.9985 28.0631V20.5502L38.0334 13.1198C38.1019 13.0373 38.1705 13.1198 38.1705 13.1198C38.1705 13.1198 38.239 13.2024 38.239 13.285V35.3283Z" fill="#1FAD90"/>
<path d="M34.6073 36.6493C34.3331 36.6493 34.059 36.8969 34.059 37.3097V41.9331H10.4812V8.49651H34.1275V11.4686C34.1275 11.7989 34.3331 12.1291 34.6758 12.1291C35.0185 12.1291 35.2241 11.8814 35.2241 11.4686V1.23128C35.2241 0.901038 35.0185 0.570801 34.6758 0.570801H10.0014C9.72728 0.570801 9.45312 0.818479 9.45312 1.23128V52.4181C9.45312 52.7484 9.65874 53.0786 10.0014 53.0786H34.6758C34.95 53.0786 35.2241 52.8309 35.2241 52.4181V37.3097C35.1556 36.9795 34.8814 36.6493 34.6073 36.6493ZM34.1275 1.89175V7.25811H10.4812V1.89175H34.1275ZM10.4812 51.8402V43.1715H34.1275V51.8402H10.4812Z" fill="white"/>
<path d="M21.7897 31.5305C21.6526 31.2003 21.3785 31.0352 21.1043 31.2003C20.8301 31.3654 20.6931 31.6956 20.8301 32.0259L22.4751 36.9794C22.5436 37.2271 22.7493 37.3922 22.9549 37.3922H27.0673C27.2044 37.3922 27.41 37.3097 27.4785 37.1446C27.5471 36.9794 27.6156 36.7318 27.5471 36.5666L25.9021 31.6131C25.765 31.2828 25.4909 31.1177 25.2167 31.2828C24.9425 31.448 24.8055 31.7782 24.9425 32.1084L26.3133 36.2364H23.2976L21.7897 31.5305Z" fill="white"/>
<path d="M41.6659 19.9722C41.3918 19.8071 41.1176 19.9722 40.9805 20.3025C40.8435 20.6327 40.9805 20.963 41.2547 21.1281C42.2828 21.706 43.0367 22.9444 43.0367 24.3479C43.0367 25.7514 42.3513 26.9898 41.2547 27.5677C40.9805 27.7328 40.8435 28.0631 40.9805 28.3933C41.0491 28.641 41.2547 28.7235 41.4603 28.7235C41.5289 28.7235 41.5974 28.7235 41.6659 28.641C43.1053 27.898 43.9963 26.1642 43.9963 24.2653C44.0648 22.449 43.1053 20.7978 41.6659 19.9722Z" fill="#1FAD90"/>
</g>
<defs>
<clipPath id="clip0_171_175">
<rect width="44" height="53" fill="white"/>
</clipPath>
</defs>
</svg>
