<svg width="64" height="72" viewBox="0 0 64 72" fill="none" xmlns="http://www.w3.org/2000/svg">
<path d="M51.5 23.082V17.4172L48.7033 16.701C48.4842 15.9922 48.2007 15.3075 47.8587 14.658L49.3295 12.1755L45.3237 8.16975L42.8413 9.6405C42.1925 9.2985 41.5077 9.015 40.7982 8.796L40.082 6H34.4172L33.701 8.79675C32.9923 9.01575 32.3075 9.29925 31.658 9.64125L29.1755 8.1705L28.3475 9H17V8.25C17 7.0095 15.9905 6 14.75 6H11.75C10.5095 6 9.5 7.0095 9.5 8.25V9H5V52.5H39.5V34.5H40.082L40.7982 31.7033C41.507 31.4842 42.1917 31.2008 42.8413 30.8587L45.3237 32.3295L49.3295 28.3237L47.8587 25.8412C48.2007 25.1925 48.4842 24.5078 48.7033 23.7983L51.5 23.082ZM15.5 28.5H14V16.5H15.5V28.5ZM11 16.5H12.5V28.5H11V16.5ZM14.849 30L13.25 32.3977L11.651 30H14.849ZM15.5 15H11V13.5H15.5V15ZM13.25 35.1023L15.6515 31.5H17V37.5H9.5V31.5H10.8485L13.25 35.1023ZM11.75 7.5H14.75C15.164 7.5 15.5 7.836 15.5 8.25V12H11V8.25C11 7.836 11.336 7.5 11.75 7.5ZM38 51H6.5V10.5H9.5V29.4773L9.84875 30H8V39H18.5V30H16.6512L17 29.4773V10.5H26.8475L25.1712 12.1762L26.642 14.6588C26.3 15.3075 26.0165 15.9923 25.7975 16.7017L23 17.418V23.0828L25.7967 23.799C26.0158 24.5077 26.2992 25.1925 26.6413 25.842L25.1705 28.3245L29.1763 32.3302L31.6587 30.8595C32.3075 31.2015 32.9923 31.485 33.7018 31.704L34.418 34.5H38V51ZM47.4912 22.56L47.3773 22.9823C47.1402 23.8635 46.793 24.7035 46.3452 25.4805L46.1263 25.86L47.4455 28.086L45.086 30.4455L42.86 29.1262L42.4805 29.3452C41.7035 29.793 40.8635 30.1402 39.9823 30.3772L39.56 30.4912L38.918 33H35.5828L34.9408 30.4912L34.5185 30.3772C33.6373 30.1402 32.7973 29.793 32.0203 29.3452L31.6408 29.1262L29.4148 30.4455L27.0553 28.086L28.3745 25.86L28.1555 25.4805C27.7078 24.7035 27.3605 23.8635 27.1235 22.9823L27.0095 22.56L24.5 21.918V18.5828L27.0087 17.9408L27.1227 17.5185C27.3598 16.6372 27.707 15.7973 28.1547 15.0203L28.3738 14.6407L27.0545 12.4148L29.414 10.0553L31.64 11.3745L32.0195 11.1555C32.7965 10.7077 33.6365 10.3605 34.5177 10.1235L34.94 10.0095L35.582 7.5H38.9173L39.5592 10.0087L39.9815 10.1228C40.8627 10.3598 41.7028 10.707 42.4798 11.1547L42.8592 11.3737L45.0853 10.0545L47.4447 12.414L46.1255 14.64L46.3445 15.0195C46.7922 15.7965 47.1395 16.6365 47.3765 17.5177L47.4905 17.94L50 18.582V21.9172L47.4912 22.56Z" fill="white"/>
<path d="M37.25 11.25C32.2873 11.25 28.25 15.2873 28.25 20.25C28.25 25.2128 32.2873 29.25 37.25 29.25C42.2128 29.25 46.25 25.2128 46.25 20.25C46.25 15.2873 42.2128 11.25 37.25 11.25ZM37.25 27.75C33.1145 27.75 29.75 24.3855 29.75 20.25C29.75 16.1145 33.1145 12.75 37.25 12.75C41.3855 12.75 44.75 16.1145 44.75 20.25C44.75 24.3855 41.3855 27.75 37.25 27.75Z" fill="white"/>
<path d="M37.25 14.25C33.9418 14.25 31.25 16.9418 31.25 20.25C31.25 23.5582 33.9418 26.25 37.25 26.25C40.5582 26.25 43.25 23.5582 43.25 20.25C43.25 16.9418 40.5582 14.25 37.25 14.25ZM37.25 24.75C34.7682 24.75 32.75 22.7318 32.75 20.25C32.75 17.7682 34.7682 15.75 37.25 15.75C39.7318 15.75 41.75 17.7682 41.75 20.25C41.75 22.7318 39.7318 24.75 37.25 24.75Z" fill="#1FAD90"/>
<path d="M18.7197 39.2197L17.4395 40.5H8V49.5H18.5V41.5605L19.7803 40.2802L18.7197 39.2197ZM17 48H9.5V42H15.9395L12.5 45.4395L11.5302 44.4697L10.4698 45.5302L12.5 47.5605L17 43.0605V48Z" fill="white"/>
<path d="M36.5 48H35V49.5H36.5V48Z" fill="white"/>
<path d="M33.5 48H20V49.5H33.5V48Z" fill="white"/>
<path d="M36.5 45H20V46.5H36.5V45Z" fill="white"/>
<path d="M36.5 42H20V43.5H36.5V42Z" fill="white"/>
<path d="M33.5 37.5H20V39H33.5V37.5Z" fill="white"/>
<path d="M33.5 34.5H20V36H33.5V34.5Z" fill="white"/>
<path d="M26 31.5H20V33H26V31.5Z" fill="white"/>
</svg>
