<svg width="26" height="31" viewBox="0 0 26 31" fill="none" xmlns="http://www.w3.org/2000/svg">
<path d="M25.6882 3.48968C25.5012 3.37336 25.3141 3.37336 25.1271 3.43152C23.5683 4.07129 21.9472 3.606 21.012 2.44278C20.5755 1.91932 20.3261 1.22139 20.3261 0.581614C20.3261 0.407129 20.2638 0.290807 20.1391 0.174484C20.0144 0.0581612 19.8897 0 19.7026 0H13.3429C12.9688 0 12.7194 0.232645 12.7194 0.581614V21.2289C12.7194 21.2871 12.7194 21.2871 12.7194 21.3452C12.5947 22.3921 11.7218 23.1482 10.5995 23.1482C9.41487 23.1482 8.41727 22.2176 8.41727 21.1126C8.41727 20.0657 9.22782 19.2514 10.3501 19.1351C10.6619 19.0769 10.9113 18.8443 10.9113 18.5535V11.8068C10.9113 11.4578 10.6619 11.2251 10.2878 11.2251C10.2878 11.2251 10.2254 11.2251 10.1631 11.2251C4.42686 11.4578 0 15.7617 0 21.1126C0 26.5797 4.73861 31 10.5995 31C16.0863 31 20.7002 27.045 21.1367 21.985C21.199 21.9268 21.199 21.8105 21.199 21.7523V10.5272C22.5707 10.818 24.0048 10.9343 25.5012 10.7017C25.8129 10.6435 26 10.4109 26 10.1201V3.95497C26 3.78049 25.8753 3.606 25.6882 3.48968ZM24.753 9.65479C23.3189 9.77111 22.0096 9.65478 20.7002 9.24765C20.5132 9.18949 20.3261 9.24765 20.1391 9.30582C19.952 9.42214 19.8897 9.59662 19.8897 9.77111V21.5197C19.8897 21.5779 19.8897 21.636 19.8273 21.6942C19.5156 26.2308 15.4005 29.8368 10.5372 29.8368C5.36211 29.8368 1.18465 25.94 1.18465 21.1126C1.18465 16.576 4.80096 12.8537 9.60192 12.4465V18.0882C8.16787 18.4953 7.10791 19.7167 7.10791 21.1126C7.10791 22.8574 8.66667 24.3114 10.5372 24.3114C12.2206 24.3114 13.6547 23.1482 13.9041 21.636C13.9664 21.5779 13.9664 21.4615 13.9664 21.4034V1.16323H19.1415C19.2662 1.91932 19.5779 2.5591 20.0144 3.14071C21.0743 4.47842 22.9448 5.17636 24.753 4.76923V9.65479Z" fill="#F9F9F9"/>
</svg>
