<svg width="84" height="84" viewBox="0 0 84 84" fill="none" xmlns="http://www.w3.org/2000/svg">
<path d="M42 0.332031C19.012 0.332031 0.332031 19.008 0.332031 42C0.332031 54.344 5.72263 65.438 14.27 73.074C15.5317 70.5388 17.0005 68.1756 18.6606 66.0428C24.5395 58.4764 32.8126 53.6638 42.0006 53.6638C51.1886 53.6638 59.4656 58.4763 65.3446 66.0428C67.0048 68.1756 68.4696 70.5389 69.7313 73.074C78.2782 65.4412 83.6693 54.344 83.6693 42C83.6693 19.012 64.9933 0.332031 42.0013 0.332031H42ZM42 18.191C50.6719 18.191 57.742 25.2613 57.742 33.933C57.742 42.6047 50.6717 49.675 42 49.675C33.3283 49.675 26.258 42.6047 26.258 33.933C26.258 25.2613 33.3283 18.191 42 18.191ZM42 21.8941C35.332 21.8941 29.965 27.2613 29.965 33.9291C29.965 40.5971 35.3322 45.9641 42 45.9641C48.6678 45.9641 54.035 40.5969 54.035 33.9291C54.035 27.265 48.6678 21.8981 42 21.8981V21.8941ZM42 57.3671C34.0977 57.3671 26.902 61.4726 21.582 68.3161C19.9179 70.4567 18.4492 72.8591 17.2109 75.4763C24.1406 80.6208 32.7149 83.6638 41.9959 83.6638C51.2769 83.6638 59.8509 80.6169 66.7809 75.4763C65.5504 72.8591 64.0778 70.4568 62.4176 68.3161C57.0973 61.4723 49.902 57.3671 42 57.3671Z" fill="#F1F0F0"/>
</svg>
